<svg width="21" height="46" viewBox="0 0 21 46" fill="none" xmlns="http://www.w3.org/2000/svg">
<path d="M10.6492 40.38V39.68C9.92255 39.6467 9.34255 39.5267 8.90922 39.32C8.48255 39.1133 8.26922 38.82 8.26922 38.44V38.2C8.26922 37.9933 8.33255 37.8133 8.45922 37.66C8.59255 37.5067 8.77589 37.38 9.00922 37.28C9.24922 37.1733 9.53589 37.0933 9.86922 37.04C10.2092 36.9867 10.5859 36.96 10.9992 36.96C11.4126 36.96 11.7859 36.9867 12.1192 37.04C12.4592 37.0933 12.7459 37.1733 12.9792 37.28C13.2192 37.38 13.4026 37.5067 13.5292 37.66C13.6626 37.8133 13.7292 37.9933 13.7292 38.2V38.44C13.7292 38.82 13.5126 39.1133 13.0792 39.32C12.6526 39.5267 12.0759 39.6467 11.3492 39.68V40.38H15.1992V40.98H6.79922V40.38H10.6492ZM8.02922 41.67H13.9692V44.36H8.02922V41.67ZM8.70922 43.74H13.2892V42.29H8.70922V43.74ZM10.9992 37.55C10.6992 37.55 10.4226 37.5667 10.1692 37.6C9.91589 37.6267 9.69922 37.67 9.51922 37.73C9.33922 37.7833 9.19922 37.8533 9.09922 37.94C8.99922 38.0267 8.94922 38.1267 8.94922 38.24V38.4C8.94922 38.5133 8.99922 38.6133 9.09922 38.7C9.19922 38.7867 9.33922 38.86 9.51922 38.92C9.69922 38.9733 9.91589 39.0167 10.1692 39.05C10.4226 39.0767 10.6992 39.09 10.9992 39.09C11.2992 39.09 11.5759 39.0767 11.8292 39.05C12.0826 39.0167 12.2992 38.9733 12.4792 38.92C12.6592 38.86 12.7992 38.7867 12.8992 38.7C12.9992 38.6133 13.0492 38.5133 13.0492 38.4V38.24C13.0492 38.1267 12.9992 38.0267 12.8992 37.94C12.7992 37.8533 12.6592 37.7833 12.4792 37.73C12.2992 37.67 12.0826 37.6267 11.8292 37.6C11.5759 37.5667 11.2992 37.55 10.9992 37.55ZM11.3492 35.93H14.3292V36.53H7.66922V35.93H10.6392V35.07H11.3492V35.93Z" fill="#C8C8C8"/>
<path d="M10.5 0L0 7.66667V23H6.5625V14.0556H14.4375V23H21V7.66667L10.5 0Z" fill="#C8C8C8"/>
</svg>
