<svg width="29" height="48" viewBox="0 0 29 48" fill="none" xmlns="http://www.w3.org/2000/svg">
<path d="M11.8487 37.94C12.2953 37.94 12.692 38.0167 13.0387 38.17C13.3853 38.3167 13.6787 38.53 13.9187 38.81C14.1587 39.09 14.342 39.43 14.4687 39.83C14.5953 40.2233 14.6587 40.6667 14.6587 41.16V42.15C14.6587 43.1233 14.4287 43.89 13.9687 44.45L14.8087 45.29L14.3587 45.76L13.4887 44.89C13.0353 45.21 12.4887 45.37 11.8487 45.37C11.402 45.37 11.0053 45.2933 10.6587 45.14C10.312 44.9933 10.0187 44.78 9.77867 44.5C9.53867 44.22 9.35534 43.8833 9.22867 43.49C9.10201 43.09 9.03867 42.6433 9.03867 42.15V41.16C9.03867 40.6667 9.09867 40.2233 9.21867 39.83C9.34534 39.43 9.52867 39.09 9.76867 38.81C10.0087 38.53 10.302 38.3167 10.6487 38.17C11.002 38.0167 11.402 37.94 11.8487 37.94ZM11.8487 44.74C12.2953 44.74 12.6787 44.63 12.9987 44.41L12.0687 43.47L12.5187 43L13.4687 43.95C13.622 43.73 13.742 43.4667 13.8287 43.16C13.9153 42.8467 13.9587 42.49 13.9587 42.09V41.22C13.9587 40.36 13.7653 39.7033 13.3787 39.25C12.9987 38.7967 12.4887 38.57 11.8487 38.57C11.2087 38.57 10.6953 38.7967 10.3087 39.25C9.92867 39.7033 9.73867 40.36 9.73867 41.22V42.09C9.73867 42.95 9.92867 43.6067 10.3087 44.06C10.6953 44.5133 11.2087 44.74 11.8487 44.74ZM18.9125 42.14C18.8658 42.1467 18.8192 42.15 18.7725 42.15C18.7325 42.15 18.6892 42.15 18.6425 42.15H16.8425V45.26H16.1425V38.05H18.6325C18.9925 38.05 19.3125 38.1 19.5925 38.2C19.8725 38.2933 20.1092 38.43 20.3025 38.61C20.5025 38.7833 20.6525 38.99 20.7525 39.23C20.8525 39.47 20.9025 39.73 20.9025 40.01V40.16C20.9025 40.6 20.7858 40.98 20.5525 41.3C20.3192 41.6133 20.0025 41.8433 19.6025 41.99L21.0525 45.26H20.3025L18.9125 42.14ZM16.8425 38.68V41.52H18.4225C19.0492 41.52 19.4992 41.4 19.7725 41.16C20.0525 40.9133 20.1925 40.57 20.1925 40.13V40.03C20.1925 39.61 20.0558 39.28 19.7825 39.04C19.5158 38.8 19.0992 38.68 18.5325 38.68H16.8425Z" fill="#C8C8C8"/>
<path d="M3.625 10.0221V4.83333C3.625 4.16599 4.16599 3.625 4.83333 3.625H10.0221" stroke="#C8C8C8" stroke-width="2" stroke-linecap="round"/>
<path d="M25.375 10.0221V4.83333C25.375 4.16599 24.834 3.625 24.1667 3.625H18.978" stroke="#C8C8C8" stroke-width="2" stroke-linecap="round"/>
<path d="M3.625 18.978V24.1667C3.625 24.8341 4.16599 25.3751 4.83333 25.3751H10.0221" stroke="#C8C8C8" stroke-width="2" stroke-linecap="round"/>
<path d="M25.375 18.978V24.1667C25.375 24.8341 24.834 25.3751 24.1667 25.3751H18.978" stroke="#C8C8C8" stroke-width="2" stroke-linecap="round"/>
<mask id="mask0_755_125" style="mask-type:luminance" maskUnits="userSpaceOnUse" x="13" y="4" width="12" height="12">
<path d="M21.6077 6.18408H16.3479C15.6806 6.18408 15.1396 6.72507 15.1396 7.39242V12.6522C15.1396 13.3196 15.6806 13.8606 16.3479 13.8606H21.6077C22.2751 13.8606 22.8161 13.3196 22.8161 12.6522V7.39242C22.8161 6.72507 22.2751 6.18408 21.6077 6.18408Z" stroke="black" stroke-width="4"/>
</mask>
<g mask="url(#mask0_755_125)">
<path d="M21.6077 6.18408H16.3479C15.6806 6.18408 15.1396 6.72507 15.1396 7.39242V12.6522C15.1396 13.3196 15.6806 13.8606 16.3479 13.8606H21.6077C22.2751 13.8606 22.8161 13.3196 22.8161 12.6522V7.39242C22.8161 6.72507 22.2751 6.18408 21.6077 6.18408Z" stroke="#C8C8C8" stroke-width="4"/>
</g>
<path d="M7.39221 17.3477C7.39221 16.7954 7.83993 16.3477 8.39221 16.3477H11.652C12.2043 16.3477 12.652 16.7954 12.652 17.3477V20.6075C12.652 21.1598 12.2043 21.6075 11.652 21.6075H8.39221C7.83993 21.6075 7.39221 21.1598 7.39221 20.6075V17.3477Z" stroke="#C8C8C8" stroke-width="2"/>
<path d="M7.39221 8.25C7.39221 7.69772 7.83993 7.25 8.39221 7.25H11.652C12.2043 7.25 12.652 7.69772 12.652 8.25V11.5099C12.652 12.0622 12.2043 12.5099 11.652 12.5099H8.39221C7.83993 12.5099 7.39221 12.0622 7.39221 11.5099V8.25Z" stroke="#C8C8C8" stroke-width="2"/>
<path d="M16.9167 8.25C16.9167 7.69772 17.3644 7.25 17.9167 7.25H21.1765C21.7288 7.25 22.1765 7.69772 22.1765 8.25V11.5099C22.1765 12.0622 21.7288 12.5099 21.1765 12.5099H17.9167C17.3644 12.5099 16.9167 12.0622 16.9167 11.5099V8.25Z" stroke="#C8C8C8" stroke-width="2"/>
<path d="M21.5368 16.4194H17.6276C16.9603 16.4194 16.4193 16.9604 16.4193 17.6278V20.3288C16.4193 20.9961 16.9603 21.5371 17.6276 21.5371H18.9781H21.5368" stroke="#C8C8C8" stroke-width="2" stroke-linecap="round"/>
</svg>
