<svg width="29" height="48" viewBox="0 0 29 48" fill="none" xmlns="http://www.w3.org/2000/svg">
<path d="M13.3084 42.3V44.64H8.40844V45.79H13.5484V46.39H7.71844V44.05H12.6184V42.91H7.66844V42.3H13.3084ZM8.53844 39.87C8.4851 40.0367 8.23844 40.31 7.79844 40.69C7.6251 40.8433 7.4051 41.03 7.13844 41.25C6.87177 41.4633 6.56844 41.6933 6.22844 41.94L5.79844 41.43C6.11844 41.21 6.4151 40.9933 6.68844 40.78C6.96177 40.56 7.20177 40.3567 7.40844 40.17C7.5551 40.0367 7.6751 39.9133 7.76844 39.8C7.86177 39.6867 7.9351 39.57 7.98844 39.45C8.04844 39.3233 8.08844 39.19 8.10844 39.05C8.1351 38.91 8.14844 38.75 8.14844 38.57V37.45H8.86844V38.54C8.86844 38.72 8.8751 38.8767 8.88844 39.01C8.90844 39.1367 8.94177 39.2533 8.98844 39.36C9.04177 39.4667 9.1151 39.5733 9.20844 39.68C9.30177 39.78 9.42844 39.8967 9.58844 40.03C9.7751 40.1833 9.99844 40.36 10.2584 40.56C10.5184 40.7533 10.7784 40.9367 11.0384 41.11L10.6384 41.62C10.4051 41.4533 10.1851 41.2933 9.97844 41.14C9.77177 40.98 9.5951 40.8433 9.44844 40.73C9.2151 40.5433 9.0151 40.3767 8.84844 40.23C8.68177 40.0767 8.58177 39.9567 8.54844 39.87H8.53844ZM12.6084 38.98V37.22H13.3084V41.76H12.6084V39.6H10.5584V38.98H12.6084ZM19.73 42.82C20.1033 42.82 20.4567 42.86 20.79 42.94C21.13 43.0133 21.4267 43.1233 21.68 43.27C21.9333 43.4167 22.1333 43.5967 22.28 43.81C22.4267 44.0167 22.5 44.25 22.5 44.51V44.9C22.5 45.16 22.4267 45.3933 22.28 45.6C22.1333 45.8133 21.9333 45.9933 21.68 46.14C21.4267 46.2867 21.13 46.4 20.79 46.48C20.4567 46.56 20.1033 46.6 19.73 46.6C19.3567 46.6 19 46.56 18.66 46.48C18.3267 46.4 18.0333 46.2867 17.78 46.14C17.5267 45.9933 17.3267 45.8133 17.18 45.6C17.0333 45.3933 16.96 45.16 16.96 44.9V44.51C16.96 44.2433 17.0333 44.0067 17.18 43.8C17.3267 43.5867 17.5267 43.4067 17.78 43.26C18.0333 43.1133 18.3267 43.0033 18.66 42.93C19 42.8567 19.3567 42.82 19.73 42.82ZM19.73 46C19.9967 46 20.2533 45.9733 20.5 45.92C20.7533 45.8733 20.9767 45.8 21.17 45.7C21.37 45.6067 21.5267 45.49 21.64 45.35C21.76 45.2167 21.82 45.06 21.82 44.88V44.54C21.82 44.36 21.76 44.2033 21.64 44.07C21.5267 43.93 21.37 43.8133 21.17 43.72C20.9767 43.62 20.7533 43.5467 20.5 43.5C20.2533 43.4467 19.9967 43.42 19.73 43.42C19.4633 43.42 19.2033 43.4467 18.95 43.5C18.7033 43.5467 18.48 43.62 18.28 43.72C18.0867 43.8133 17.93 43.93 17.81 44.07C17.6967 44.2033 17.64 44.36 17.64 44.54V44.88C17.64 45.06 17.6967 45.2167 17.81 45.35C17.93 45.49 18.0867 45.6067 18.28 45.7C18.48 45.8 18.7033 45.8733 18.95 45.92C19.2033 45.9733 19.4633 46 19.73 46ZM17.79 40.46C17.77 40.5333 17.6867 40.6467 17.54 40.8C17.4 40.9533 17.2233 41.1233 17.01 41.31C16.9233 41.39 16.8167 41.48 16.69 41.58C16.57 41.68 16.44 41.7833 16.3 41.89C16.1667 41.9967 16.03 42.1033 15.89 42.21C15.7567 42.3167 15.6333 42.41 15.52 42.49L15.09 41.99C15.39 41.7767 15.69 41.5533 15.99 41.32C16.29 41.08 16.5633 40.84 16.81 40.6C16.93 40.48 17.03 40.3667 17.11 40.26C17.19 40.1533 17.25 40.0467 17.29 39.94C17.3367 39.8333 17.3667 39.7233 17.38 39.61C17.4 39.49 17.41 39.3633 17.41 39.23V38.41H15.35V37.8H20.08V38.41H18.12V39.2C18.12 39.3467 18.1267 39.4767 18.14 39.59C18.1533 39.7033 18.1833 39.8133 18.23 39.92C18.2833 40.0267 18.3567 40.1367 18.45 40.25C18.55 40.3567 18.68 40.48 18.84 40.62C19 40.7533 19.21 40.9167 19.47 41.11C19.73 41.3033 20.0033 41.4967 20.29 41.69L19.88 42.19C19.68 42.05 19.47 41.9 19.25 41.74C19.0367 41.5733 18.8533 41.43 18.7 41.31C18.4667 41.1167 18.2633 40.9433 18.09 40.79C17.9167 40.6367 17.82 40.5267 17.8 40.46H17.79ZM22.45 42.61H21.75V40.18H19.84V39.56H21.75V37.22H22.45V42.61Z" fill="#C8C8C8"/>
<path fill-rule="evenodd" clip-rule="evenodd" d="M15.0301 8.09967L17.0016 8.99817C17.3569 9.16011 17.6943 9.35582 18.0098 9.58147L19.7754 10.8447L21.22 9.224L22.2671 8.61998L23.4755 10.7129L22.429 11.317L20.3073 11.7576L20.5137 13.9143C20.5321 14.1064 20.5415 14.3017 20.5415 14.4998C20.5415 14.698 20.5321 14.8933 20.5137 15.0853L20.3073 17.2419L22.4288 17.6817L23.4755 18.2866L22.2671 20.3796L21.2207 19.7754L19.7754 18.155L18.0098 19.4181C17.6944 19.6438 17.3569 19.8396 17.0016 20.0015L15.0301 20.9L15.7087 22.9576L15.7082 24.1665H13.2915V22.9582L13.9697 20.9L11.9982 20.0015C11.6428 19.8396 11.3053 19.6438 10.9898 19.4181L9.22411 18.1548L7.77952 19.7755L6.73233 20.3796L5.524 18.2866L6.57045 17.6825L8.69237 17.2421L8.48602 15.0853C8.46766 14.8933 8.45819 14.698 8.45819 14.4998C8.45819 14.3017 8.46766 14.1064 8.48603 13.9144L8.69243 11.7574L6.57069 11.3178L5.524 10.7129L6.73233 8.61997L7.77879 9.22413L9.22407 10.8449L10.9899 9.58156C11.3053 9.35587 11.6428 9.16013 11.9982 8.99817L13.9697 8.09967L13.291 6.0421L13.2915 4.83317H15.7082V6.0415L15.0301 8.09967ZM23.6374 15.5896C23.5209 15.5223 23.4011 15.4659 23.2792 15.4199C23.1609 15.3753 23.0406 15.3406 22.9194 15.3155C22.9451 15.047 22.9582 14.775 22.9582 14.4998C22.9582 14.2247 22.945 13.9526 22.9194 13.6841C23.0406 13.659 23.1609 13.6243 23.2792 13.5796C23.4011 13.5337 23.5209 13.4772 23.6374 13.4099L24.0958 13.1452L24.6838 12.8058C25.8397 12.1384 26.2358 10.6604 25.5684 9.50454L24.3601 7.41164C23.6927 6.25577 22.2147 5.85973 21.0588 6.52708L20.4711 6.86646L20.0124 7.13125C19.8967 7.19802 19.7886 7.27293 19.6885 7.35482C19.5898 7.43547 19.499 7.5229 19.4159 7.61601C18.9749 7.30049 18.5023 7.02631 18.0038 6.7991C18.0423 6.68199 18.0723 6.56091 18.0927 6.43664C18.1138 6.30806 18.1248 6.17606 18.1248 6.0415V5.51192V4.83317C18.1248 3.49848 17.0429 2.4165 15.7082 2.4165H13.2915C11.9569 2.4165 10.8749 3.49848 10.8749 4.83317V5.51211V6.0415C10.8749 6.1761 10.8859 6.30813 10.907 6.43674C10.9275 6.56098 10.9574 6.68202 10.996 6.7991C10.4974 7.02633 10.0247 7.30055 9.58368 7.61611C9.50068 7.52298 9.40972 7.43555 9.31107 7.35488C9.2109 7.27296 9.10282 7.19805 8.98712 7.13124L8.52875 6.8666L7.94067 6.52707C6.7848 5.85973 5.30679 6.25577 4.63944 7.41163L3.43111 9.50454C2.76377 10.6604 3.1598 12.1384 4.31567 12.8058L4.90363 13.1452L5.36212 13.4099C5.47875 13.4772 5.59867 13.5338 5.7207 13.5798C5.83895 13.6244 5.95919 13.6591 6.08035 13.6841C6.05467 13.9526 6.04153 14.2247 6.04153 14.4998C6.04153 14.775 6.05466 15.047 6.08034 15.3153C5.95919 15.3405 5.83897 15.3752 5.72074 15.4197C5.59869 15.4657 5.47876 15.5222 5.36212 15.5896L4.90364 15.8543L4.31567 16.1938C3.1598 16.861 2.76377 18.3391 3.43111 19.495L4.63944 21.5879C5.30679 22.7437 6.7848 23.1398 7.94067 22.4724L8.52879 22.1329L8.98712 21.8683C9.10276 21.8016 9.21079 21.7266 9.31093 21.6447C9.4096 21.5641 9.50059 21.4766 9.5836 21.3835C10.0247 21.6991 10.4974 21.9734 10.996 22.2005C10.9574 22.3178 10.9274 22.4388 10.907 22.563C10.8859 22.6916 10.8749 22.8236 10.8749 22.9582V23.4874V24.1665C10.8749 25.5012 11.9569 26.5832 13.2915 26.5832H15.7082C17.0429 26.5832 18.1248 25.5012 18.1248 24.1665V23.4875V22.9582C18.1248 22.8237 18.1138 22.6917 18.0927 22.5632C18.0723 22.4388 18.0424 22.3178 18.0038 22.2005C18.5023 21.9734 18.9749 21.6991 19.4159 21.3836C19.499 21.4768 19.5899 21.5641 19.6887 21.6448C19.7887 21.7266 19.8967 21.8016 20.0124 21.8683L20.4709 22.133L21.0588 22.4724C22.2147 23.1398 23.6927 22.7437 24.3601 21.5879L25.5684 19.495C26.2358 18.3391 25.8397 16.861 24.6838 16.1938L24.0958 15.8543L23.6374 15.5896ZM13.2916 14.4998C13.2916 13.8325 13.8326 13.2915 14.5 13.2915C15.1673 13.2915 15.7083 13.8325 15.7083 14.4998C15.7083 15.1672 15.1673 15.7082 14.5 15.7082C13.8326 15.7082 13.2916 15.1672 13.2916 14.4998ZM14.5 18.1248C16.502 18.1248 18.125 16.5019 18.125 14.4998C18.125 12.4977 16.502 10.8748 14.5 10.8748C12.4979 10.8748 10.875 12.4977 10.875 14.4998C10.875 16.5019 12.4979 18.1248 14.5 18.1248Z" fill="#C8C8C8"/>
</svg>
