<svg width="28" height="47" viewBox="0 0 28 47" fill="none" xmlns="http://www.w3.org/2000/svg">
<path d="M3.63766 39.69C3.61766 39.7633 3.53432 39.8767 3.38766 40.03C3.24766 40.1833 3.07099 40.3533 2.85766 40.54C2.77099 40.62 2.66432 40.71 2.53766 40.81C2.41766 40.91 2.28766 41.0133 2.14766 41.12C2.01432 41.2267 1.87766 41.3333 1.73766 41.44C1.60432 41.5467 1.48099 41.64 1.36766 41.72L0.937656 41.22C1.23766 41.0067 1.53766 40.7833 1.83766 40.55C2.13766 40.31 2.41099 40.07 2.65766 39.83C2.77766 39.71 2.87766 39.5967 2.95766 39.49C3.03766 39.3833 3.09766 39.2767 3.13766 39.17C3.18432 39.0633 3.21432 38.9533 3.22766 38.84C3.24766 38.72 3.25766 38.5933 3.25766 38.46V37.43H1.19766V36.82H5.92766V37.43H3.96766V38.43C3.96766 38.5767 3.97432 38.7067 3.98766 38.82C4.00099 38.9333 4.03099 39.0433 4.07766 39.15C4.13099 39.2567 4.20432 39.3667 4.29766 39.48C4.39766 39.5867 4.52766 39.71 4.68766 39.85C4.84766 39.9833 5.05766 40.1467 5.31766 40.34C5.57766 40.5333 5.85099 40.7267 6.13766 40.92L5.72766 41.41C5.52099 41.27 5.31099 41.12 5.09766 40.96C4.88432 40.8 4.70099 40.66 4.54766 40.54C4.31432 40.3467 4.11099 40.1733 3.93766 40.02C3.76432 39.8667 3.66766 39.7567 3.64766 39.69H3.63766ZM7.59766 38.65V36.22H8.29766V42.75H7.59766V39.27H5.68766V38.65H7.59766ZM3.40766 44.63H8.52766V45.25H2.69766V42.22H3.40766V44.63ZM10.2892 36.82H14.4792V37.45H10.9992V40.49C11.4992 40.49 11.9359 40.49 12.3092 40.49C12.6892 40.4833 13.0392 40.4733 13.3592 40.46C13.6859 40.44 13.9992 40.4167 14.2992 40.39C14.6059 40.3633 14.9392 40.33 15.2992 40.29L15.3792 40.91C15.1326 40.9433 14.8992 40.97 14.6792 40.99C14.4592 41.01 14.2392 41.03 14.0192 41.05C13.7992 41.0633 13.5659 41.0767 13.3192 41.09C13.0792 41.0967 12.8126 41.1033 12.5192 41.11C12.2259 41.11 11.8959 41.1133 11.5292 41.12C11.1692 41.12 10.7559 41.12 10.2892 41.12V36.82ZM16.9892 38.71H18.3892V39.33H16.9892V42.76H16.2892V36.22H16.9892V38.71ZM12.2292 44.62H17.2692V45.25H11.5192V42.24H12.2292V44.62ZM24.3608 37.68H22.2908V39.14C22.2908 39.3333 22.2974 39.5 22.3108 39.64C22.3241 39.78 22.3508 39.9133 22.3908 40.04C22.4308 40.1667 22.4874 40.2933 22.5608 40.42C22.6408 40.54 22.7474 40.6767 22.8808 40.83C23.0741 41.0567 23.3141 41.3133 23.6008 41.6C23.8941 41.8867 24.2274 42.1967 24.6008 42.53L24.1408 43C23.7941 42.68 23.4941 42.3933 23.2408 42.14C22.9941 41.8867 22.7708 41.6533 22.5708 41.44C22.4241 41.2867 22.2908 41.14 22.1708 41C22.0508 40.86 21.9774 40.7567 21.9508 40.69H21.9408C21.9274 40.7367 21.8941 40.7967 21.8408 40.87C21.7941 40.9433 21.7341 41.0233 21.6608 41.11C21.5941 41.1967 21.5208 41.2867 21.4408 41.38C21.3608 41.4667 21.2841 41.55 21.2108 41.63C21.1441 41.7033 21.0541 41.8 20.9408 41.92C20.8274 42.0333 20.7008 42.16 20.5608 42.3C20.4274 42.4333 20.2808 42.5767 20.1208 42.73C19.9674 42.8767 19.8174 43.0133 19.6708 43.14L19.2008 42.67C19.5208 42.39 19.8174 42.1133 20.0908 41.84C20.3708 41.5667 20.6274 41.3 20.8608 41.04C21.0208 40.86 21.1474 40.7 21.2408 40.56C21.3341 40.4133 21.4041 40.27 21.4508 40.13C21.5041 39.99 21.5374 39.8467 21.5508 39.7C21.5708 39.5533 21.5808 39.3833 21.5808 39.19V37.68H19.4808V37.06H24.3608V37.68ZM26.5508 45.36H25.8408V36.22H26.5508V45.36Z" fill="#C8C8C8"/>
<path d="M21.1667 18.75H5.83333V16.25H21.1667V18.75ZM21.1667 13.75H5.83333V11.25H21.1667V13.75ZM21.1667 8.75H5.83333V6.25H21.1667V8.75ZM2 25L3.91667 23.125L5.83333 25L7.75 23.125L9.66667 25L11.5833 23.125L13.5 25L15.4167 23.125L17.3333 25L19.25 23.125L21.1667 25L23.0833 23.125L25 25V0L23.0833 1.875L21.1667 0L19.25 1.875L17.3333 0L15.4167 1.875L13.5 0L11.5833 1.875L9.66667 0L7.75 1.875L5.83333 0L3.91667 1.875L2 0V25Z" fill="#C8C8C8"/>
</svg>
