<svg width="24" height="45" viewBox="0 0 24 45" fill="none" xmlns="http://www.w3.org/2000/svg">
<path d="M10.3084 39.3V41.64H5.40844V42.79H10.5484V43.39H4.71844V41.05H9.61844V39.91H4.66844V39.3H10.3084ZM5.53844 36.87C5.4851 37.0367 5.23844 37.31 4.79844 37.69C4.6251 37.8433 4.4051 38.03 4.13844 38.25C3.87177 38.4633 3.56844 38.6933 3.22844 38.94L2.79844 38.43C3.11844 38.21 3.4151 37.9933 3.68844 37.78C3.96177 37.56 4.20177 37.3567 4.40844 37.17C4.5551 37.0367 4.6751 36.9133 4.76844 36.8C4.86177 36.6867 4.9351 36.57 4.98844 36.45C5.04844 36.3233 5.08844 36.19 5.10844 36.05C5.1351 35.91 5.14844 35.75 5.14844 35.57V34.45H5.86844V35.54C5.86844 35.72 5.8751 35.8767 5.88844 36.01C5.90844 36.1367 5.94177 36.2533 5.98844 36.36C6.04177 36.4667 6.1151 36.5733 6.20844 36.68C6.30177 36.78 6.42844 36.8967 6.58844 37.03C6.7751 37.1833 6.99844 37.36 7.25844 37.56C7.51844 37.7533 7.77844 37.9367 8.03844 38.11L7.63844 38.62C7.4051 38.4533 7.1851 38.2933 6.97844 38.14C6.77177 37.98 6.5951 37.8433 6.44844 37.73C6.2151 37.5433 6.0151 37.3767 5.84844 37.23C5.68177 37.0767 5.58177 36.9567 5.54844 36.87H5.53844ZM9.60844 35.98V34.22H10.3084V38.76H9.60844V36.6H7.55844V35.98H9.60844ZM16.73 39.82C17.1033 39.82 17.4567 39.86 17.79 39.94C18.13 40.0133 18.4267 40.1233 18.68 40.27C18.9333 40.4167 19.1333 40.5967 19.28 40.81C19.4267 41.0167 19.5 41.25 19.5 41.51V41.9C19.5 42.16 19.4267 42.3933 19.28 42.6C19.1333 42.8133 18.9333 42.9933 18.68 43.14C18.4267 43.2867 18.13 43.4 17.79 43.48C17.4567 43.56 17.1033 43.6 16.73 43.6C16.3567 43.6 16 43.56 15.66 43.48C15.3267 43.4 15.0333 43.2867 14.78 43.14C14.5267 42.9933 14.3267 42.8133 14.18 42.6C14.0333 42.3933 13.96 42.16 13.96 41.9V41.51C13.96 41.2433 14.0333 41.0067 14.18 40.8C14.3267 40.5867 14.5267 40.4067 14.78 40.26C15.0333 40.1133 15.3267 40.0033 15.66 39.93C16 39.8567 16.3567 39.82 16.73 39.82ZM16.73 43C16.9967 43 17.2533 42.9733 17.5 42.92C17.7533 42.8733 17.9767 42.8 18.17 42.7C18.37 42.6067 18.5267 42.49 18.64 42.35C18.76 42.2167 18.82 42.06 18.82 41.88V41.54C18.82 41.36 18.76 41.2033 18.64 41.07C18.5267 40.93 18.37 40.8133 18.17 40.72C17.9767 40.62 17.7533 40.5467 17.5 40.5C17.2533 40.4467 16.9967 40.42 16.73 40.42C16.4633 40.42 16.2033 40.4467 15.95 40.5C15.7033 40.5467 15.48 40.62 15.28 40.72C15.0867 40.8133 14.93 40.93 14.81 41.07C14.6967 41.2033 14.64 41.36 14.64 41.54V41.88C14.64 42.06 14.6967 42.2167 14.81 42.35C14.93 42.49 15.0867 42.6067 15.28 42.7C15.48 42.8 15.7033 42.8733 15.95 42.92C16.2033 42.9733 16.4633 43 16.73 43ZM14.79 37.46C14.77 37.5333 14.6867 37.6467 14.54 37.8C14.4 37.9533 14.2233 38.1233 14.01 38.31C13.9233 38.39 13.8167 38.48 13.69 38.58C13.57 38.68 13.44 38.7833 13.3 38.89C13.1667 38.9967 13.03 39.1033 12.89 39.21C12.7567 39.3167 12.6333 39.41 12.52 39.49L12.09 38.99C12.39 38.7767 12.69 38.5533 12.99 38.32C13.29 38.08 13.5633 37.84 13.81 37.6C13.93 37.48 14.03 37.3667 14.11 37.26C14.19 37.1533 14.25 37.0467 14.29 36.94C14.3367 36.8333 14.3667 36.7233 14.38 36.61C14.4 36.49 14.41 36.3633 14.41 36.23V35.41H12.35V34.8H17.08V35.41H15.12V36.2C15.12 36.3467 15.1267 36.4767 15.14 36.59C15.1533 36.7033 15.1833 36.8133 15.23 36.92C15.2833 37.0267 15.3567 37.1367 15.45 37.25C15.55 37.3567 15.68 37.48 15.84 37.62C16 37.7533 16.21 37.9167 16.47 38.11C16.73 38.3033 17.0033 38.4967 17.29 38.69L16.88 39.19C16.68 39.05 16.47 38.9 16.25 38.74C16.0367 38.5733 15.8533 38.43 15.7 38.31C15.4667 38.1167 15.2633 37.9433 15.09 37.79C14.9167 37.6367 14.82 37.5267 14.8 37.46H14.79ZM19.45 39.61H18.75V37.18H16.84V36.56H18.75V34.22H19.45V39.61Z" fill="#C8C8C8"/>
<path d="M21.1754 13.724C21.2268 13.3333 21.2525 12.9297 21.2525 12.5C21.2525 12.0833 21.2268 11.6667 21.1626 11.276L23.7713 9.21875C24.0026 9.03646 24.0668 8.68489 23.9255 8.42448L21.4581 4.10156C21.3039 3.8151 20.9827 3.72396 20.6999 3.8151L17.6286 5.0651C16.9861 4.57031 16.305 4.15365 15.5468 3.84115L15.0842 0.533854C15.0328 0.221354 14.7758 0 14.4673 0H9.53266C9.22425 0 8.98008 0.221354 8.92868 0.533854L8.46605 3.84115C7.70786 4.15365 7.01392 4.58333 6.38424 5.0651L3.31292 3.8151C3.0302 3.71094 2.70893 3.8151 2.55472 4.10156L0.100236 8.42448C-0.0539726 8.69792 -0.00256984 9.03646 0.254445 9.21875L2.86314 11.276C2.79889 11.6667 2.74748 12.0964 2.74748 12.5C2.74748 12.9036 2.77319 13.3333 2.83744 13.724L0.228743 15.7812C-0.00256982 15.9635 -0.0668233 16.3151 0.0745346 16.5755L2.54187 20.8984C2.69608 21.1849 3.01735 21.276 3.30006 21.1849L6.37139 19.9349C7.01392 20.4297 7.69501 20.8464 8.4532 21.1589L8.91583 24.4661C8.98008 24.7786 9.22425 25 9.53266 25H14.4673C14.7758 25 15.0328 24.7786 15.0713 24.4661L15.5339 21.1589C16.2921 20.8464 16.9861 20.4297 17.6158 19.9349L20.6871 21.1849C20.9698 21.2891 21.2911 21.1849 21.4453 20.8984L23.9126 16.5755C24.0668 16.2891 24.0026 15.9635 23.7584 15.7812L21.1754 13.724ZM12 17.1875C9.45556 17.1875 7.37374 15.0781 7.37374 12.5C7.37374 9.92188 9.45556 7.8125 12 7.8125C14.5444 7.8125 16.6263 9.92188 16.6263 12.5C16.6263 15.0781 14.5444 17.1875 12 17.1875Z" fill="#C8C8C8"/>
</svg>
