<svg width="36" height="45" viewBox="0 0 36 45" fill="none" xmlns="http://www.w3.org/2000/svg">
<path d="M3.58688 38.54C3.55354 38.6267 3.47354 38.7467 3.34688 38.9C3.22021 39.0467 3.07688 39.1867 2.91688 39.32C2.70354 39.5067 2.46354 39.7033 2.19688 39.91C1.93688 40.1167 1.66688 40.3167 1.38688 40.51L0.806875 39.8C1.12688 39.5733 1.42688 39.3533 1.70688 39.14C1.98688 38.92 2.21688 38.7233 2.39688 38.55C2.51688 38.43 2.62021 38.3133 2.70688 38.2C2.79354 38.0867 2.86021 37.97 2.90688 37.85C2.96021 37.7233 2.99688 37.59 3.01688 37.45C3.04354 37.3033 3.05688 37.14 3.05688 36.96V36.57H1.11688V35.72H5.87688V36.57H4.05688V36.92C4.05688 37.08 4.06354 37.2233 4.07688 37.35C4.09021 37.4767 4.11354 37.5933 4.14688 37.7C4.18688 37.8067 4.24021 37.91 4.30688 38.01C4.37354 38.1033 4.46354 38.2 4.57688 38.3C4.81021 38.5133 5.05688 38.72 5.31688 38.92C5.57688 39.1133 5.85688 39.3067 6.15688 39.5L5.59688 40.22C5.33688 40.04 5.09354 39.8633 4.86688 39.69C4.64021 39.5167 4.40688 39.33 4.16688 39.13C4.01354 39.0033 3.88688 38.8933 3.78688 38.8C3.69354 38.7 3.63021 38.6133 3.59688 38.54H3.58688ZM2.24688 41.03H8.31688V44.49H7.32688V41.88H2.24688V41.03ZM7.33688 40.55V38.24H5.63688V37.39H7.33688V35.18H8.31688V40.55H7.33688ZM17.3584 40.61V44.4H11.6084V40.61H12.5884V41.67H16.3784V40.61H17.3584ZM10.3184 40V37.38H13.4484V36.42H10.3184V35.59H14.4284V38.19H11.2984V39.16H12.1384C12.4118 39.16 12.6784 39.16 12.9384 39.16C13.1984 39.1533 13.4584 39.1433 13.7184 39.13C13.9784 39.1167 14.2451 39.1 14.5184 39.08C14.7918 39.0533 15.0851 39.02 15.3984 38.98L15.4884 39.8C15.2084 39.8333 14.9384 39.8633 14.6784 39.89C14.4184 39.9167 14.1518 39.94 13.8784 39.96C13.6118 39.9733 13.3284 39.9833 13.0284 39.99C12.7351 39.9967 12.4051 40 12.0384 40H10.3184ZM16.3784 40.16V35.18H17.3584V40.16H16.3784ZM16.3784 43.56V42.5H12.5884V43.56H16.3784ZM26.8 44.4H25.83V39.04H24.66V43.95H23.69V35.37H24.66V38.18H25.83V35.18H26.8V44.4ZM20.24 36.05V41H20.64C21.02 41 21.4033 40.99 21.79 40.97C22.1767 40.9433 22.58 40.8933 23 40.82L23.11 41.68C22.7033 41.7533 22.26 41.8033 21.78 41.83C21.3067 41.8567 20.7833 41.87 20.21 41.87H19.25V36.05H20.24ZM32.7916 38.04C32.7916 38.26 32.7449 38.49 32.6516 38.73C32.5649 38.97 32.4249 39.19 32.2316 39.39C32.0449 39.5833 31.8082 39.7433 31.5216 39.87C31.2349 39.9967 30.8949 40.06 30.5016 40.06C30.1082 40.06 29.7682 39.9967 29.4816 39.87C29.1949 39.7433 28.9549 39.5833 28.7616 39.39C28.5749 39.19 28.4349 38.97 28.3416 38.73C28.2549 38.49 28.2116 38.26 28.2116 38.04V37.53C28.2116 37.31 28.2549 37.08 28.3416 36.84C28.4349 36.6 28.5749 36.3833 28.7616 36.19C28.9549 35.99 29.1949 35.8267 29.4816 35.7C29.7682 35.5733 30.1082 35.51 30.5016 35.51C30.8949 35.51 31.2349 35.5733 31.5216 35.7C31.8082 35.8267 32.0449 35.99 32.2316 36.19C32.4249 36.3833 32.5649 36.6 32.6516 36.84C32.7449 37.08 32.7916 37.31 32.7916 37.53V38.04ZM29.5516 41.01H35.6216V44.49H34.6316V41.86H29.5516V41.01ZM34.6516 40.53V39.28H33.2016V38.43H34.6516V37.2H33.2016V36.35H34.6516V35.18H35.6216V40.53H34.6516ZM31.8416 37.58C31.8416 37.4333 31.8149 37.29 31.7616 37.15C31.7082 37.0033 31.6249 36.8733 31.5116 36.76C31.4049 36.64 31.2649 36.5467 31.0916 36.48C30.9249 36.4067 30.7282 36.37 30.5016 36.37C30.2682 36.37 30.0682 36.4067 29.9016 36.48C29.7349 36.5467 29.5949 36.64 29.4816 36.76C29.3749 36.8733 29.2949 37.0033 29.2416 37.15C29.1882 37.29 29.1616 37.4333 29.1616 37.58V37.99C29.1616 38.1367 29.1882 38.2833 29.2416 38.43C29.2949 38.57 29.3749 38.7 29.4816 38.82C29.5949 38.9333 29.7349 39.0267 29.9016 39.1C30.0682 39.1667 30.2682 39.2 30.5016 39.2C30.7282 39.2 30.9249 39.1667 31.0916 39.1C31.2649 39.0267 31.4049 38.9333 31.5116 38.82C31.6249 38.7 31.7082 38.57 31.7616 38.43C31.8149 38.2833 31.8416 38.1367 31.8416 37.99V37.58Z" fill="#C8C8C8"/>
<path d="M9.20313 6.33033C4.93751 10.5974 4.93751 17.5061 9.17188 21.7732C11.4688 16.4589 15.5625 12.0198 20.6719 9.37827C16.3438 13.0358 13.3125 18.1469 12.25 23.9458C16.3125 25.8684 21.3125 25.165 24.6719 21.8045C30.1094 16.3651 31 0 31 0C31 0 14.6406 0.890936 9.20313 6.33033Z" fill="#C8C8C8"/>
</svg>
