<svg width="26" height="46" viewBox="0 0 26 46" fill="none" xmlns="http://www.w3.org/2000/svg">
<path d="M4.60473 40.65V42.59H8.56473V42.97H0.224727V42.59H4.17473V40.65H1.51473V38.12H6.84473V36.35H1.49473V35.97H7.25473V38.49H1.92473V40.27H7.45473V40.65H4.60473ZM17.1682 42.59V42.97H8.82824V42.59H17.1682ZM15.8282 36.19V37.47C15.8282 37.8633 15.8182 38.2367 15.7982 38.59C15.7849 38.9367 15.7616 39.2767 15.7282 39.61C15.6949 39.9367 15.6516 40.26 15.5982 40.58C15.5516 40.9 15.4982 41.2267 15.4382 41.56L15.0282 41.51C15.0882 41.2033 15.1416 40.9 15.1882 40.6C15.2349 40.2933 15.2749 39.9867 15.3082 39.68C15.3416 39.3733 15.3649 39.06 15.3782 38.74C15.3982 38.42 15.4082 38.0833 15.4082 37.73V36.58H9.90824V36.19H15.8282ZM24.4818 41.76V35.26H24.9118V41.76H24.4818ZM19.8918 43.81H25.1418V44.21H19.4618V41.28H19.8918V43.81ZM20.0718 35.69C20.3651 35.69 20.6451 35.74 20.9118 35.84C21.1784 35.94 21.4118 36.08 21.6118 36.26C21.8118 36.4333 21.9684 36.6367 22.0818 36.87C22.2018 37.1033 22.2618 37.35 22.2618 37.61V38.27C22.2618 38.53 22.2018 38.7767 22.0818 39.01C21.9684 39.2433 21.8118 39.45 21.6118 39.63C21.4118 39.8033 21.1784 39.94 20.9118 40.04C20.6451 40.14 20.3651 40.19 20.0718 40.19C19.7784 40.19 19.4984 40.14 19.2318 40.04C18.9651 39.94 18.7318 39.8033 18.5318 39.63C18.3318 39.45 18.1718 39.2433 18.0518 39.01C17.9384 38.7767 17.8818 38.53 17.8818 38.27V37.61C17.8818 37.35 17.9384 37.1033 18.0518 36.87C18.1718 36.6367 18.3318 36.4333 18.5318 36.26C18.7318 36.08 18.9651 35.94 19.2318 35.84C19.4984 35.74 19.7784 35.69 20.0718 35.69ZM20.0718 39.78C20.3184 39.78 20.5484 39.74 20.7618 39.66C20.9751 39.58 21.1618 39.47 21.3218 39.33C21.4818 39.1833 21.6051 39.0133 21.6918 38.82C21.7851 38.6267 21.8318 38.4167 21.8318 38.19V37.69C21.8318 37.4633 21.7851 37.2533 21.6918 37.06C21.6051 36.8667 21.4818 36.7 21.3218 36.56C21.1618 36.4133 20.9751 36.3 20.7618 36.22C20.5484 36.14 20.3184 36.1 20.0718 36.1C19.8251 36.1 19.5951 36.14 19.3818 36.22C19.1684 36.3 18.9818 36.4133 18.8218 36.56C18.6618 36.7 18.5351 36.8667 18.4418 37.06C18.3551 37.2533 18.3118 37.4633 18.3118 37.69V38.19C18.3118 38.4167 18.3551 38.6267 18.4418 38.82C18.5351 39.0133 18.6618 39.1833 18.8218 39.33C18.9818 39.47 19.1684 39.58 19.3818 39.66C19.5951 39.74 19.8251 39.78 20.0718 39.78Z" fill="#C8C8C8"/>
<mask id="mask0_806_1105" style="mask-type:luminance" maskUnits="userSpaceOnUse" x="11" y="2" width="12" height="12">
<path d="M19.6077 4.18408H14.3479C13.6805 4.18408 13.1395 4.72507 13.1395 5.39242V10.6522C13.1395 11.3196 13.6805 11.8606 14.3479 11.8606H19.6077C20.275 11.8606 20.816 11.3196 20.816 10.6522V5.39242C20.816 4.72507 20.275 4.18408 19.6077 4.18408Z" stroke="#C8C8C8" stroke-width="4"/>
</mask>
<path d="M13 19.25C14.3807 19.25 15.5 18.1307 15.5 16.75C15.5 15.3693 14.3807 14.25 13 14.25C11.6193 14.25 10.5 15.3693 10.5 16.75C10.5 18.1307 11.6193 19.25 13 19.25Z" stroke="#C8C8C8" stroke-width="2"/>
<path d="M18 6.75V9.25H8V6.75C8 3.98857 10.2386 1.75 13 1.75C15.7614 1.75 18 3.98857 18 6.75Z" stroke="#C8C8C8" stroke-width="2"/>
<path d="M20.5 9.25H5.5C4.80964 9.25 4.25 9.80964 4.25 10.5V23C4.25 23.6904 4.80964 24.25 5.5 24.25H20.5C21.1904 24.25 21.75 23.6904 21.75 23V10.5C21.75 9.80964 21.1904 9.25 20.5 9.25Z" stroke="#C8C8C8" stroke-width="2"/>
</svg>
