<svg width="29" height="48" viewBox="0 0 29 48" fill="none" xmlns="http://www.w3.org/2000/svg">
<path d="M11.2084 38.68H9.13844V40.14C9.13844 40.3333 9.1451 40.5 9.15844 40.64C9.17177 40.78 9.19844 40.9133 9.23844 41.04C9.27844 41.1667 9.3351 41.2933 9.40844 41.42C9.48844 41.54 9.5951 41.6767 9.72844 41.83C9.92177 42.0567 10.1618 42.3133 10.4484 42.6C10.7418 42.8867 11.0751 43.1967 11.4484 43.53L10.9884 44C10.6418 43.68 10.3418 43.3933 10.0884 43.14C9.84177 42.8867 9.61844 42.6533 9.41844 42.44C9.27177 42.2867 9.13844 42.14 9.01844 42C8.89844 41.86 8.8251 41.7567 8.79844 41.69H8.78844C8.7751 41.7367 8.74177 41.7967 8.68844 41.87C8.64177 41.9433 8.58177 42.0233 8.50844 42.11C8.44177 42.1967 8.36844 42.2867 8.28844 42.38C8.20844 42.4667 8.13177 42.55 8.05844 42.63C7.99177 42.7033 7.90177 42.8 7.78844 42.92C7.6751 43.0333 7.54844 43.16 7.40844 43.3C7.2751 43.4333 7.12844 43.5767 6.96844 43.73C6.8151 43.8767 6.6651 44.0133 6.51844 44.14L6.04844 43.67C6.36844 43.39 6.6651 43.1133 6.93844 42.84C7.21844 42.5667 7.4751 42.3 7.70844 42.04C7.86844 41.86 7.9951 41.7 8.08844 41.56C8.18177 41.4133 8.25177 41.27 8.29844 41.13C8.35177 40.99 8.3851 40.8467 8.39844 40.7C8.41844 40.5533 8.42844 40.3833 8.42844 40.19V38.68H6.32844V38.06H11.2084V38.68ZM13.3984 46.36H12.6884V37.22H13.3984V46.36ZM22.14 42.14H19.4V44.46H23.25V45.07H14.85V44.46H18.7V42.14H16.06V38.02H22.04V38.63H16.77V41.53H22.14V42.14Z" fill="#C8C8C8"/>
<path d="M14.4999 14.4998C15.8346 14.4998 16.9166 13.4179 16.9166 12.0832C16.9166 10.7485 15.8346 9.6665 14.4999 9.6665C13.1652 9.6665 12.0833 10.7485 12.0833 12.0832C12.0833 13.4179 13.1652 14.4998 14.4999 14.4998Z" stroke="#C8C8C8" stroke-width="2"/>
<path d="M5.83132 10.8749C5.09096 15.8051 10.2196 22.0651 12.9169 24.9688C13.7842 25.9023 15.2157 25.9022 16.0811 24.9669C18.7685 22.0625 23.8545 15.804 22.9583 10.8749C22.5808 8.79864 21.915 7.64387 20.5417 6.04159C20.5417 6.04159 18.125 3.625 14.5 3.625C10.875 3.625 8.45832 6.04159 8.45832 6.04159C7.02479 7.64167 6.15035 8.75042 5.83132 10.8749Z" stroke="#C8C8C8" stroke-width="2" stroke-linecap="round"/>
</svg>
