<svg width="19" height="46" viewBox="0 0 19 46" fill="none" xmlns="http://www.w3.org/2000/svg">
<path d="M6.20844 36.68H4.13844V38.14C4.13844 38.3333 4.1451 38.5 4.15844 38.64C4.17177 38.78 4.19844 38.9133 4.23844 39.04C4.27844 39.1667 4.3351 39.2933 4.40844 39.42C4.48844 39.54 4.5951 39.6767 4.72844 39.83C4.92177 40.0567 5.16177 40.3133 5.44844 40.6C5.74177 40.8867 6.0751 41.1967 6.44844 41.53L5.98844 42C5.64177 41.68 5.34177 41.3933 5.08844 41.14C4.84177 40.8867 4.61844 40.6533 4.41844 40.44C4.27177 40.2867 4.13844 40.14 4.01844 40C3.89844 39.86 3.8251 39.7567 3.79844 39.69H3.78844C3.7751 39.7367 3.74177 39.7967 3.68844 39.87C3.64177 39.9433 3.58177 40.0233 3.50844 40.11C3.44177 40.1967 3.36844 40.2867 3.28844 40.38C3.20844 40.4667 3.13177 40.55 3.05844 40.63C2.99177 40.7033 2.90177 40.8 2.78844 40.92C2.6751 41.0333 2.54844 41.16 2.40844 41.3C2.2751 41.4333 2.12844 41.5767 1.96844 41.73C1.8151 41.8767 1.6651 42.0133 1.51844 42.14L1.04844 41.67C1.36844 41.39 1.6651 41.1133 1.93844 40.84C2.21844 40.5667 2.4751 40.3 2.70844 40.04C2.86844 39.86 2.9951 39.7 3.08844 39.56C3.18177 39.4133 3.25177 39.27 3.29844 39.13C3.35177 38.99 3.3851 38.8467 3.39844 38.7C3.41844 38.5533 3.42844 38.3833 3.42844 38.19V36.68H1.32844V36.06H6.20844V36.68ZM8.39844 44.36H7.68844V35.22H8.39844V44.36ZM17.14 40.14H14.4V42.46H18.25V43.07H9.85V42.46H13.7V40.14H11.06V36.02H17.04V36.63H11.77V39.53H17.14V40.14Z" fill="#C8C8C8"/>
<path d="M9.5 0C4.24786 0 0 3.9125 0 8.75C0 15.3125 9.5 25 9.5 25C9.5 25 19 15.3125 19 8.75C19 3.9125 14.7521 0 9.5 0ZM9.5 11.875C7.62714 11.875 6.10714 10.475 6.10714 8.75C6.10714 7.025 7.62714 5.625 9.5 5.625C11.3729 5.625 12.8929 7.025 12.8929 8.75C12.8929 10.475 11.3729 11.875 9.5 11.875Z" fill="#C8C8C8"/>
</svg>
