<svg width="29" height="48" viewBox="0 0 29 48" fill="none" xmlns="http://www.w3.org/2000/svg">
<path d="M4.63766 40.69C4.61766 40.7633 4.53432 40.8767 4.38766 41.03C4.24766 41.1833 4.07099 41.3533 3.85766 41.54C3.77099 41.62 3.66432 41.71 3.53766 41.81C3.41766 41.91 3.28766 42.0133 3.14766 42.12C3.01432 42.2267 2.87766 42.3333 2.73766 42.44C2.60432 42.5467 2.48099 42.64 2.36766 42.72L1.93766 42.22C2.23766 42.0067 2.53766 41.7833 2.83766 41.55C3.13766 41.31 3.41099 41.07 3.65766 40.83C3.77766 40.71 3.87766 40.5967 3.95766 40.49C4.03766 40.3833 4.09766 40.2767 4.13766 40.17C4.18432 40.0633 4.21432 39.9533 4.22766 39.84C4.24766 39.72 4.25766 39.5933 4.25766 39.46V38.43H2.19766V37.82H6.92766V38.43H4.96766V39.43C4.96766 39.5767 4.97432 39.7067 4.98766 39.82C5.00099 39.9333 5.03099 40.0433 5.07766 40.15C5.13099 40.2567 5.20432 40.3667 5.29766 40.48C5.39766 40.5867 5.52766 40.71 5.68766 40.85C5.84766 40.9833 6.05766 41.1467 6.31766 41.34C6.57766 41.5333 6.85099 41.7267 7.13766 41.92L6.72766 42.41C6.52099 42.27 6.31099 42.12 6.09766 41.96C5.88432 41.8 5.70099 41.66 5.54766 41.54C5.31432 41.3467 5.11099 41.1733 4.93766 41.02C4.76432 40.8667 4.66766 40.7567 4.64766 40.69H4.63766ZM8.59766 39.65V37.22H9.29766V43.75H8.59766V40.27H6.68766V39.65H8.59766ZM4.40766 45.63H9.52766V46.25H3.69766V43.22H4.40766V45.63ZM11.2892 37.82H15.4792V38.45H11.9992V41.49C12.4992 41.49 12.9359 41.49 13.3092 41.49C13.6892 41.4833 14.0392 41.4733 14.3592 41.46C14.6859 41.44 14.9992 41.4167 15.2992 41.39C15.6059 41.3633 15.9392 41.33 16.2992 41.29L16.3792 41.91C16.1326 41.9433 15.8992 41.97 15.6792 41.99C15.4592 42.01 15.2392 42.03 15.0192 42.05C14.7992 42.0633 14.5659 42.0767 14.3192 42.09C14.0792 42.0967 13.8126 42.1033 13.5192 42.11C13.2259 42.11 12.8959 42.1133 12.5292 42.12C12.1692 42.12 11.7559 42.12 11.2892 42.12V37.82ZM17.9892 39.71H19.3892V40.33H17.9892V43.76H17.2892V37.22H17.9892V39.71ZM13.2292 45.62H18.2692V46.25H12.5192V43.24H13.2292V45.62ZM25.3608 38.68H23.2908V40.14C23.2908 40.3333 23.2974 40.5 23.3108 40.64C23.3241 40.78 23.3508 40.9133 23.3908 41.04C23.4308 41.1667 23.4874 41.2933 23.5608 41.42C23.6408 41.54 23.7474 41.6767 23.8808 41.83C24.0741 42.0567 24.3141 42.3133 24.6008 42.6C24.8941 42.8867 25.2274 43.1967 25.6008 43.53L25.1408 44C24.7941 43.68 24.4941 43.3933 24.2408 43.14C23.9941 42.8867 23.7708 42.6533 23.5708 42.44C23.4241 42.2867 23.2908 42.14 23.1708 42C23.0508 41.86 22.9774 41.7567 22.9508 41.69H22.9408C22.9274 41.7367 22.8941 41.7967 22.8408 41.87C22.7941 41.9433 22.7341 42.0233 22.6608 42.11C22.5941 42.1967 22.5208 42.2867 22.4408 42.38C22.3608 42.4667 22.2841 42.55 22.2108 42.63C22.1441 42.7033 22.0541 42.8 21.9408 42.92C21.8274 43.0333 21.7008 43.16 21.5608 43.3C21.4274 43.4333 21.2808 43.5767 21.1208 43.73C20.9674 43.8767 20.8174 44.0133 20.6708 44.14L20.2008 43.67C20.5208 43.39 20.8174 43.1133 21.0908 42.84C21.3708 42.5667 21.6274 42.3 21.8608 42.04C22.0208 41.86 22.1474 41.7 22.2408 41.56C22.3341 41.4133 22.4041 41.27 22.4508 41.13C22.5041 40.99 22.5374 40.8467 22.5508 40.7C22.5708 40.5533 22.5808 40.3833 22.5808 40.19V38.68H20.4808V38.06H25.3608V38.68ZM27.5508 46.36H26.8408V37.22H27.5508V46.36Z" fill="#006C3A"/>
<path d="M6.64587 15.7794V6.04167C6.64587 4.70698 7.72785 3.625 9.06254 3.625H20.5417C21.8764 3.625 22.9584 4.70698 22.9584 6.04167V22.9583C22.9584 24.2931 21.8764 25.375 20.5417 25.375H7.25004C5.91535 25.375 4.83337 24.2931 4.83337 22.9583V21.75C4.83337 20.4153 5.91535 19.3333 7.25004 19.3333H15.7537C16.7184 19.3333 17.5943 19.9061 17.9005 20.8209C18.1096 21.4456 18.3321 22.2019 18.4804 22.9583C18.8358 24.7708 20.755 25.375 20.755 25.375" stroke="#006C3A" stroke-width="2" stroke-linecap="round"/>
</svg>
