<svg width="29" height="48" viewBox="0 0 29 48" fill="none" xmlns="http://www.w3.org/2000/svg">
<path d="M14.6492 42.38V41.68C13.9226 41.6467 13.3426 41.5267 12.9092 41.32C12.4826 41.1133 12.2692 40.82 12.2692 40.44V40.2C12.2692 39.9933 12.3326 39.8133 12.4592 39.66C12.5926 39.5067 12.7759 39.38 13.0092 39.28C13.2492 39.1733 13.5359 39.0933 13.8692 39.04C14.2092 38.9867 14.5859 38.96 14.9992 38.96C15.4126 38.96 15.7859 38.9867 16.1192 39.04C16.4592 39.0933 16.7459 39.1733 16.9792 39.28C17.2192 39.38 17.4026 39.5067 17.5292 39.66C17.6626 39.8133 17.7292 39.9933 17.7292 40.2V40.44C17.7292 40.82 17.5126 41.1133 17.0792 41.32C16.6526 41.5267 16.0759 41.6467 15.3492 41.68V42.38H19.1992V42.98H10.7992V42.38H14.6492ZM12.0292 43.67H17.9692V46.36H12.0292V43.67ZM12.7092 45.74H17.2892V44.29H12.7092V45.74ZM14.9992 39.55C14.6992 39.55 14.4226 39.5667 14.1692 39.6C13.9159 39.6267 13.6992 39.67 13.5192 39.73C13.3392 39.7833 13.1992 39.8533 13.0992 39.94C12.9992 40.0267 12.9492 40.1267 12.9492 40.24V40.4C12.9492 40.5133 12.9992 40.6133 13.0992 40.7C13.1992 40.7867 13.3392 40.86 13.5192 40.92C13.6992 40.9733 13.9159 41.0167 14.1692 41.05C14.4226 41.0767 14.6992 41.09 14.9992 41.09C15.2992 41.09 15.5759 41.0767 15.8292 41.05C16.0826 41.0167 16.2992 40.9733 16.4792 40.92C16.6592 40.86 16.7992 40.7867 16.8992 40.7C16.9992 40.6133 17.0492 40.5133 17.0492 40.4V40.24C17.0492 40.1267 16.9992 40.0267 16.8992 39.94C16.7992 39.8533 16.6592 39.7833 16.4792 39.73C16.2992 39.67 16.0826 39.6267 15.8292 39.6C15.5759 39.5667 15.2992 39.55 14.9992 39.55ZM15.3492 37.93H18.3292V38.53H11.6692V37.93H14.6392V37.07H15.3492V37.93Z" fill="#006C3A"/>
<mask id="mask0_755_293" style="mask-type:luminance" maskUnits="userSpaceOnUse" x="2" y="2" width="25" height="25">
<path d="M26.5833 2.43457H2.41663V26.6012H26.5833V2.43457Z" fill="white"/>
<path fill-rule="evenodd" clip-rule="evenodd" d="M16.0149 5.38489C15.1303 4.67314 13.8695 4.67314 12.9849 5.38489L5.73495 11.2184C5.16482 11.6771 4.83325 12.3695 4.83325 13.1012V21.7498C4.83325 23.0845 5.91523 24.1664 7.24992 24.1664H8.86093C10.1956 24.1664 11.2776 23.0845 11.2776 21.7498V18.8052C11.2776 17.4704 12.3596 16.3885 13.6943 16.3885H15.3054C16.6401 16.3885 17.7221 17.4704 17.7221 18.8052V21.7498C17.7221 23.0845 18.804 24.1664 20.1387 24.1664H21.7499C23.0846 24.1664 24.1666 23.0845 24.1666 21.7498V13.1012C24.1666 12.3695 23.835 11.6771 23.2649 11.2184L16.0149 5.38489Z" fill="black"/>
</mask>
<g mask="url(#mask0_755_293)">
<path d="M7.24996 13.1014L14.5 7.2679L11.47 3.50221L4.22 9.33569L7.24996 13.1014ZM7.24996 21.7499V13.1014H2.41663V21.7499H7.24996ZM8.86097 21.7499H7.24996V26.5832H8.86097V21.7499ZM13.6944 21.7499V18.8053H8.86097V21.7499H13.6944ZM13.6944 18.8053H15.3054V13.972H13.6944V18.8053ZM15.3054 18.8053V21.7499H20.1388V18.8053H15.3054ZM21.75 21.7499H20.1388V26.5832H21.75V21.7499ZM21.75 13.1014V21.7499H26.5833V13.1014H21.75ZM14.5 7.2679L21.75 13.1014L24.7799 9.33569L17.5299 3.50221L14.5 7.2679ZM26.5833 13.1014C26.5833 11.6379 25.9202 10.2532 24.7799 9.33569L21.75 13.1014H26.5833ZM21.75 26.5832C24.4193 26.5832 26.5833 24.4192 26.5833 21.7499H21.75V26.5832ZM15.3054 21.7499C15.3054 24.4192 17.4693 26.5832 20.1388 26.5832V21.7499H15.3054ZM15.3054 18.8053H20.1388C20.1388 16.136 17.9748 13.972 15.3054 13.972V18.8053ZM13.6944 18.8053V13.972C11.0249 13.972 8.86097 16.136 8.86097 18.8053H13.6944ZM8.86097 26.5832C11.5303 26.5832 13.6944 24.4192 13.6944 21.7499H8.86097V26.5832ZM2.41663 21.7499C2.41663 24.4192 4.58058 26.5832 7.24996 26.5832V21.7499H2.41663ZM14.5 7.2679L17.5299 3.50221C15.7607 2.07869 13.2392 2.07869 11.47 3.50221L14.5 7.2679ZM4.22 9.33569C3.07976 10.2532 2.41663 11.6379 2.41663 13.1014H7.24996L4.22 9.33569Z" fill="#006C3A"/>
</g>
</svg>
