<svg width="23" height="45" viewBox="0 0 23 45" fill="none" xmlns="http://www.w3.org/2000/svg">
<path d="M8.84867 34.94C9.29534 34.94 9.69201 35.0167 10.0387 35.17C10.3853 35.3167 10.6787 35.53 10.9187 35.81C11.1587 36.09 11.342 36.43 11.4687 36.83C11.5953 37.2233 11.6587 37.6667 11.6587 38.16V39.15C11.6587 40.1233 11.4287 40.89 10.9687 41.45L11.8087 42.29L11.3587 42.76L10.4887 41.89C10.0353 42.21 9.48867 42.37 8.84867 42.37C8.40201 42.37 8.00534 42.2933 7.65867 42.14C7.31201 41.9933 7.01867 41.78 6.77867 41.5C6.53867 41.22 6.35534 40.8833 6.22867 40.49C6.10201 40.09 6.03867 39.6433 6.03867 39.15V38.16C6.03867 37.6667 6.09867 37.2233 6.21867 36.83C6.34534 36.43 6.52867 36.09 6.76867 35.81C7.00867 35.53 7.30201 35.3167 7.64867 35.17C8.00201 35.0167 8.40201 34.94 8.84867 34.94ZM8.84867 41.74C9.29534 41.74 9.67867 41.63 9.99867 41.41L9.06867 40.47L9.51867 40L10.4687 40.95C10.622 40.73 10.742 40.4667 10.8287 40.16C10.9153 39.8467 10.9587 39.49 10.9587 39.09V38.22C10.9587 37.36 10.7653 36.7033 10.3787 36.25C9.99867 35.7967 9.48867 35.57 8.84867 35.57C8.20867 35.57 7.69534 35.7967 7.30867 36.25C6.92867 36.7033 6.73867 37.36 6.73867 38.22V39.09C6.73867 39.95 6.92867 40.6067 7.30867 41.06C7.69534 41.5133 8.20867 41.74 8.84867 41.74ZM15.9125 39.14C15.8658 39.1467 15.8192 39.15 15.7725 39.15C15.7325 39.15 15.6892 39.15 15.6425 39.15H13.8425V42.26H13.1425V35.05H15.6325C15.9925 35.05 16.3125 35.1 16.5925 35.2C16.8725 35.2933 17.1092 35.43 17.3025 35.61C17.5025 35.7833 17.6525 35.99 17.7525 36.23C17.8525 36.47 17.9025 36.73 17.9025 37.01V37.16C17.9025 37.6 17.7858 37.98 17.5525 38.3C17.3192 38.6133 17.0025 38.8433 16.6025 38.99L18.0525 42.26H17.3025L15.9125 39.14ZM13.8425 35.68V38.52H15.4225C16.0492 38.52 16.4992 38.4 16.7725 38.16C17.0525 37.9133 17.1925 37.57 17.1925 37.13V37.03C17.1925 36.61 17.0558 36.28 16.7825 36.04C16.5158 35.8 16.0992 35.68 15.5325 35.68H13.8425Z" fill="#006C3A"/>
<path d="M8.625 5.175V8.625H5.175V5.175H8.625ZM10.35 3.45H3.45V10.35H10.35V3.45ZM8.625 14.375V17.825H5.175V14.375H8.625ZM10.35 12.65H3.45V19.55H10.35V12.65ZM17.825 5.175V8.625H14.375V5.175H17.825ZM19.55 3.45H12.65V10.35H19.55V3.45ZM12.65 12.65H14.375V14.375H12.65V12.65ZM14.375 14.375H16.1V16.1H14.375V14.375ZM16.1 12.65H17.825V14.375H16.1V12.65ZM12.65 16.1H14.375V17.825H12.65V16.1ZM14.375 17.825H16.1V19.55H14.375V17.825ZM16.1 16.1H17.825V17.825H16.1V16.1ZM17.825 14.375H19.55V16.1H17.825V14.375ZM17.825 17.825H19.55V19.55H17.825V17.825ZM23 5.75H20.7V2.3H17.25V0H23V5.75ZM23 23V17.25H20.7V20.7H17.25V23H23ZM0 23H5.75V20.7H2.3V17.25H0V23ZM0 0V5.75H2.3V2.3H5.75V0H0Z" fill="#006C3A"/>
</svg>
