<svg width="113" height="138" viewBox="0 0 113 138" fill="none" xmlns="http://www.w3.org/2000/svg">
<rect width="113" height="138" rx="5" fill="white"/>
<path d="M50.6 52L47.306 55.6667H41.6C39.62 55.6667 38 57.3167 38 59.3333V81.3333C38 83.35 39.62 85 41.6 85H70.4C72.38 85 74 83.35 74 81.3333V59.3333C74 57.3167 72.38 55.6667 70.4 55.6667H64.694L61.4 52H50.6ZM56 79.5C51.032 79.5 47 75.3933 47 70.3333C47 65.2733 51.032 61.1667 56 61.1667C60.968 61.1667 65 65.2733 65 70.3333C65 75.3933 60.968 79.5 56 79.5Z" fill="#C8C8C8"/>
<path d="M55 66C55 65.4477 55.4477 65 56 65C56.5523 65 57 65.4477 57 66V75C57 75.5523 56.5523 76 56 76C55.4477 76 55 75.5523 55 75V66Z" fill="#C8C8C8"/>
<path d="M60.5107 69.5496C61.063 69.5557 61.5058 70.0084 61.4997 70.5606C61.4936 71.1129 61.041 71.5556 60.4887 71.5495L51.4893 71.4503C50.937 71.4443 50.4943 70.9916 50.5003 70.4394C50.5064 69.8871 50.959 69.4444 51.5113 69.4505L60.5107 69.5496Z" fill="#C8C8C8"/>
</svg>
