<svg width="46" height="23" viewBox="0 0 46 23" fill="none" xmlns="http://www.w3.org/2000/svg">
<rect width="46" height="23" rx="11.5" fill="#E1F4EB"/>
<path d="M19.0918 9.188V10.112H23.4478V11.36H13.2238V10.112H17.5798V9.188H14.6518V4.772H16.1518V5.876H20.5198V4.772H22.0198V9.188H19.0918ZM14.5558 12.14H22.0678V15.86H20.5558V13.388H14.5558V12.14ZM16.1518 7.964H20.5198V7.1H16.1518V7.964ZM32.404 8.504H33.94V9.824H32.404V15.728H30.88V4.568H32.404V8.504ZM28.492 10.184C28.748 10.464 29.028 10.756 29.332 11.06C29.636 11.356 29.944 11.644 30.256 11.924L29.284 12.944C29.012 12.688 28.748 12.436 28.492 12.188C28.236 11.932 27.996 11.688 27.772 11.456C27.54 11.224 27.344 11.016 27.184 10.832C27.024 10.64 26.924 10.492 26.884 10.388H26.86C26.82 10.5 26.708 10.664 26.524 10.88C26.348 11.088 26.16 11.296 25.96 11.504C25.736 11.736 25.5 11.976 25.252 12.224C25.004 12.464 24.708 12.744 24.364 13.064L23.368 12.032C24.048 11.424 24.648 10.836 25.168 10.268C25.344 10.076 25.488 9.892 25.6 9.716C25.72 9.54 25.816 9.36 25.888 9.176C25.96 8.992 26.012 8.8 26.044 8.6C26.076 8.4 26.092 8.176 26.092 7.928V5.36H27.64V7.928C27.64 8.168 27.648 8.384 27.664 8.576C27.688 8.768 27.732 8.952 27.796 9.128C27.86 9.296 27.944 9.468 28.048 9.644C28.16 9.812 28.308 9.992 28.492 10.184Z" fill="#006C3A"/>
</svg>
