<svg width="30" height="30" viewBox="0 0 30 30" fill="none" xmlns="http://www.w3.org/2000/svg">
<path d="M11.2216 14.8574L13.922 17.9428L19.323 11.1549M7.44098 19.7939C8.70926 22.377 12.1063 24.6048 13.8836 25.637C14.5772 26.04 15.4219 26.031 16.1097 25.6183C17.8959 24.5463 21.3365 22.2473 22.5635 19.7939C23.8177 17.286 23.8041 11.6869 23.7146 8.97823C23.6835 8.03969 23.1005 7.21969 22.2374 6.84987L15.9869 4.17177C15.3581 3.90238 14.6464 3.90238 14.0176 4.17177L7.76347 6.85144C6.90224 7.22045 6.3197 8.03748 6.28742 8.97388C6.1947 11.6644 6.17732 17.2203 7.44098 19.7939Z" stroke="black" stroke-width="2" stroke-linecap="round" stroke-linejoin="round"/>
</svg>
