<svg width="20" height="25" viewBox="0 0 20 25" fill="none" xmlns="http://www.w3.org/2000/svg">
<path d="M9.52381 19.0476C10.8333 19.0476 11.9048 17.9762 11.9048 16.6667C11.9048 15.3571 10.8333 14.2857 9.52381 14.2857C8.21429 14.2857 7.14286 15.3571 7.14286 16.6667C7.14286 17.9762 8.21429 19.0476 9.52381 19.0476ZM16.6667 8.33333H15.4762V5.95238C15.4762 2.66667 12.8095 0 9.52381 0C6.2381 0 3.57143 2.66667 3.57143 5.95238V8.33333H2.38095C1.07143 8.33333 0 9.40476 0 10.7143V22.619C0 23.9286 1.07143 25 2.38095 25H16.6667C17.9762 25 19.0476 23.9286 19.0476 22.619V10.7143C19.0476 9.40476 17.9762 8.33333 16.6667 8.33333ZM5.83333 5.95238C5.83333 3.91667 7.4881 2.2619 9.52381 2.2619C11.5595 2.2619 13.2143 3.91667 13.2143 5.95238V8.33333H5.83333V5.95238ZM16.6667 22.619H2.38095V10.7143H16.6667V22.619Z" fill="black"/>
</svg>
