<svg width="30" height="30" viewBox="0 0 30 30" fill="none" xmlns="http://www.w3.org/2000/svg">
<path d="M22.5 11.25H7.5C6.80964 11.25 6.25 11.8096 6.25 12.5V25C6.25 25.6904 6.80964 26.25 7.5 26.25H22.5C23.1904 26.25 23.75 25.6904 23.75 25V12.5C23.75 11.8096 23.1904 11.25 22.5 11.25Z" stroke="black" stroke-width="2"/>
<path d="M20 8.75V11.25H10V8.75C10 5.98857 12.2386 3.75 15 3.75C17.7614 3.75 20 5.98857 20 8.75Z" stroke="black" stroke-width="2"/>
<path d="M15 21.25C16.3807 21.25 17.5 20.1307 17.5 18.75C17.5 17.3693 16.3807 16.25 15 16.25C13.6193 16.25 12.5 17.3693 12.5 18.75C12.5 20.1307 13.6193 21.25 15 21.25Z" stroke="black" stroke-width="2"/>
</svg>
