<svg width="22" height="23" viewBox="0 0 22 23" fill="none" xmlns="http://www.w3.org/2000/svg">
<path d="M10.989 0C4.917 0 0 5.152 0 11.5C0 17.848 4.917 23 10.989 23C17.072 23 22 17.848 22 11.5C22 5.152 17.072 0 10.989 0ZM11 20.7C6.138 20.7 2.2 16.583 2.2 11.5C2.2 6.417 6.138 2.3 11 2.3C15.862 2.3 19.8 6.417 19.8 11.5C19.8 16.583 15.862 20.7 11 20.7ZM14.85 10.35C15.763 10.35 16.5 9.5795 16.5 8.625C16.5 7.6705 15.763 6.9 14.85 6.9C13.937 6.9 13.2 7.6705 13.2 8.625C13.2 9.5795 13.937 10.35 14.85 10.35ZM7.15 10.35C8.063 10.35 8.8 9.5795 8.8 8.625C8.8 7.6705 8.063 6.9 7.15 6.9C6.237 6.9 5.5 7.6705 5.5 8.625C5.5 9.5795 6.237 10.35 7.15 10.35ZM11 17.825C13.563 17.825 15.741 16.146 16.621 13.8H5.379C6.259 16.146 8.437 17.825 11 17.825Z" fill="black"/>
</svg>
