<svg width="44" height="44" viewBox="0 0 44 44" fill="none" xmlns="http://www.w3.org/2000/svg">
<path d="M15.4 21.45C13.882 21.45 12.65 22.682 12.65 24.2C12.65 25.718 13.882 26.95 15.4 26.95C16.918 26.95 18.15 25.718 18.15 24.2C18.15 22.682 16.918 21.45 15.4 21.45ZM28.6 21.45C27.082 21.45 25.85 22.682 25.85 24.2C25.85 25.718 27.082 26.95 28.6 26.95C30.118 26.95 31.35 25.718 31.35 24.2C31.35 22.682 30.118 21.45 28.6 21.45ZM22 0C9.856 0 0 9.856 0 22C0 34.144 9.856 44 22 44C34.144 44 44 34.144 44 22C44 9.856 34.144 0 22 0ZM22 39.6C12.298 39.6 4.4 31.702 4.4 22C4.4 21.362 4.444 20.724 4.51 20.108C9.702 17.798 13.816 13.552 15.972 8.294C19.954 13.926 26.51 17.6 33.924 17.6C35.64 17.6 37.29 17.402 38.874 17.028C39.336 18.59 39.6 20.262 39.6 22C39.6 31.702 31.702 39.6 22 39.6Z" fill="#006C3A"/>
</svg>
