<svg width="72" height="69" viewBox="0 0 72 69" fill="none" xmlns="http://www.w3.org/2000/svg">
<path d="M4.42914 59.715C4.37914 59.845 4.25414 60.02 4.05414 60.24C3.86414 60.46 3.65414 60.675 3.42414 60.885C3.10414 61.175 2.74414 61.475 2.34414 61.785C1.95414 62.085 1.54914 62.38 1.12914 62.67L0.259141 61.605C0.739141 61.265 1.19414 60.93 1.62414 60.6C2.05414 60.27 2.39914 59.98 2.65914 59.73C2.83914 59.56 2.98914 59.39 3.10914 59.22C3.23914 59.05 3.33914 58.875 3.40914 58.695C3.48914 58.505 3.54414 58.3 3.57414 58.08C3.61414 57.86 3.63414 57.615 3.63414 57.345V56.43H0.724141V55.155H7.86414V56.43H5.13414V57.285C5.13414 57.765 5.18414 58.165 5.28414 58.485C5.38414 58.795 5.59414 59.09 5.91414 59.37C6.27414 59.69 6.64914 59.995 7.03914 60.285C7.42914 60.575 7.84414 60.865 8.28414 61.155L7.44414 62.235C7.05414 61.965 6.68914 61.7 6.34914 61.44C6.00914 61.18 5.65914 60.9 5.29914 60.6C5.06914 60.41 4.87914 60.245 4.72914 60.105C4.58914 59.955 4.49414 59.825 4.44414 59.715H4.42914ZM10.0541 64.125V59.07H7.50414V57.795H10.0541V54.27H11.5241V64.125H10.0541ZM4.36914 66.66H11.8091V67.95H2.88414V63.33H4.36914V66.66ZM21.9665 61.425C21.4365 61.495 20.9415 61.55 20.4815 61.59C20.0215 61.63 19.5115 61.665 18.9515 61.695C18.3915 61.715 17.7415 61.73 17.0015 61.74C16.2615 61.75 15.3515 61.755 14.2715 61.755V55.17H20.6765V56.445H15.7265V60.48C16.4965 60.48 17.1465 60.475 17.6765 60.465C18.2165 60.455 18.7065 60.44 19.1465 60.42C19.5865 60.4 20.0115 60.375 20.4215 60.345C20.8315 60.305 21.2965 60.255 21.8165 60.195L21.9665 61.425ZM26.5115 59.16H24.5465V64.14H23.0765V54.27H24.5465V57.87H26.5115V59.16ZM17.5865 66.66H24.9215V67.95H16.1015V63.36H17.5865V66.66ZM31.8838 61.29C31.8138 61.46 31.7088 61.635 31.5688 61.815C31.4288 61.995 31.2388 62.215 30.9988 62.475C30.6888 62.815 30.3438 63.18 29.9638 63.57C29.5838 63.95 29.1388 64.375 28.6288 64.845L27.6538 63.84C28.1038 63.43 28.5138 63.04 28.8838 62.67C29.2638 62.3 29.6238 61.925 29.9638 61.545C30.2138 61.275 30.4138 61.03 30.5638 60.81C30.7138 60.59 30.8288 60.375 30.9088 60.165C30.9888 59.955 31.0438 59.74 31.0738 59.52C31.1038 59.3 31.1188 59.05 31.1188 58.77V56.805H28.1488V55.515H35.5138V56.805H32.6188V58.77C32.6188 59.07 32.6338 59.33 32.6638 59.55C32.6938 59.77 32.7488 59.98 32.8288 60.18C32.9188 60.38 33.0438 60.59 33.2038 60.81C33.3638 61.02 33.5788 61.27 33.8488 61.56C34.1688 61.91 34.4938 62.245 34.8238 62.565C35.1638 62.885 35.5588 63.24 36.0088 63.63L35.0338 64.635C34.5238 64.165 34.0988 63.765 33.7588 63.435C33.4188 63.095 33.1038 62.77 32.8138 62.46C32.6038 62.23 32.4138 62.015 32.2438 61.815C32.0738 61.615 31.9588 61.44 31.8988 61.29H31.8838ZM37.3888 68.1V54.27H38.8738V68.1H37.3888ZM46.2862 56.97V55.71H50.2762V54.195H51.7612V55.71H55.7662V56.97H51.7612V57.075C51.7612 57.225 51.7762 57.375 51.8062 57.525C51.8462 57.665 51.9162 57.805 52.0162 57.945C52.1162 58.075 52.2562 58.21 52.4362 58.35C52.6262 58.48 52.8662 58.615 53.1562 58.755C53.6562 58.985 54.1612 59.205 54.6712 59.415C55.1812 59.615 55.7212 59.815 56.2912 60.015L55.7962 61.17C55.1562 60.94 54.5812 60.725 54.0712 60.525C53.5612 60.315 53.1012 60.12 52.6912 59.94C52.1912 59.72 51.8162 59.53 51.5662 59.37C51.3162 59.2 51.1362 59.03 51.0262 58.86H51.0112C50.9012 59.05 50.7212 59.225 50.4712 59.385C50.2212 59.545 49.8462 59.735 49.3462 59.955C48.9362 60.135 48.4762 60.325 47.9662 60.525C47.4562 60.725 46.8812 60.94 46.2412 61.17L45.7162 60.015C46.2862 59.815 46.8312 59.615 47.3512 59.415C47.8712 59.205 48.3762 58.985 48.8662 58.755C49.1562 58.625 49.3912 58.49 49.5712 58.35C49.7512 58.21 49.8912 58.07 49.9912 57.93C50.1012 57.79 50.1762 57.65 50.2162 57.51C50.2562 57.36 50.2762 57.215 50.2762 57.075V56.97H46.2862ZM50.2912 68.1V63.54H44.6962V62.28H57.3862V63.54H51.7912V68.1H50.2912ZM71.2935 60.675H69.1635V68.1H67.6785V54.27H69.1635V59.385H71.2935V60.675ZM58.6185 63.87C59.4185 63.4 60.0935 62.985 60.6435 62.625C61.2035 62.255 61.6635 61.92 62.0235 61.62C62.3935 61.32 62.6835 61.04 62.8935 60.78C63.1035 60.51 63.2585 60.24 63.3585 59.97C63.4585 59.7 63.5185 59.425 63.5385 59.145C63.5685 58.855 63.5835 58.53 63.5835 58.17V56.835H58.8885V55.56H65.0535V58.185C65.0535 58.645 65.0385 59.055 65.0085 59.415C64.9885 59.775 64.9185 60.12 64.7985 60.45C64.6885 60.77 64.5135 61.09 64.2735 61.41C64.0435 61.72 63.7185 62.055 63.2985 62.415C62.8785 62.765 62.3485 63.155 61.7085 63.585C61.0785 64.015 60.3085 64.505 59.3985 65.055L58.6185 63.87Z" fill="black"/>
<path d="M31.9762 2.02381C31.9762 0.906091 32.8823 0 34 0C35.1177 0 36.0238 0.90609 36.0238 2.02381V31.9762C36.0238 33.0939 35.1177 34 34 34C32.8823 34 31.9762 33.0939 31.9762 31.9762V2.02381Z" fill="#006C3A"/>
<path d="M48.9762 14.9762C50.0939 14.9762 51 15.8823 51 17C51 18.1177 50.0939 19.0238 48.9762 19.0238L19.0238 19.0238C17.9061 19.0238 17 18.1177 17 17C17 15.8823 17.9061 14.9762 19.0238 14.9762L48.9762 14.9762Z" fill="#006C3A"/>
</svg>
