<svg width="70" height="70" viewBox="0 0 70 70" fill="none" xmlns="http://www.w3.org/2000/svg">
<g filter="url(#filter0_d_346_261)">
<circle cx="35" cy="31" r="25" fill="white"/>
</g>
<path d="M35.5 26.2273C32.5868 26.2273 30.2273 28.5868 30.2273 31.5C30.2273 34.4132 32.5868 36.7727 35.5 36.7727C38.4132 36.7727 40.7727 34.4132 40.7727 31.5C40.7727 28.5868 38.4132 26.2273 35.5 26.2273ZM47.2845 30.1818C46.6782 24.685 42.315 20.3218 36.8182 19.7155V17H34.1818V19.7155C28.685 20.3218 24.3218 24.685 23.7155 30.1818H21V32.8182H23.7155C24.3218 38.315 28.685 42.6782 34.1818 43.2845V46H36.8182V43.2845C42.315 42.6782 46.6782 38.315 47.2845 32.8182H50V30.1818H47.2845ZM35.5 40.7273C30.3986 40.7273 26.2727 36.6014 26.2727 31.5C26.2727 26.3986 30.3986 22.2727 35.5 22.2727C40.6014 22.2727 44.7273 26.3986 44.7273 31.5C44.7273 36.6014 40.6014 40.7273 35.5 40.7273Z" fill="#313541"/>
<defs>
<filter id="filter0_d_346_261" x="0" y="0" width="70" height="70" filterUnits="userSpaceOnUse" color-interpolation-filters="sRGB">
<feFlood flood-opacity="0" result="BackgroundImageFix"/>
<feColorMatrix in="SourceAlpha" type="matrix" values="0 0 0 0 0 0 0 0 0 0 0 0 0 0 0 0 0 0 127 0" result="hardAlpha"/>
<feOffset dy="4"/>
<feGaussianBlur stdDeviation="5"/>
<feComposite in2="hardAlpha" operator="out"/>
<feColorMatrix type="matrix" values="0 0 0 0 0 0 0 0 0 0 0 0 0 0 0 0 0 0 0.2 0"/>
<feBlend mode="normal" in2="BackgroundImageFix" result="effect1_dropShadow_346_261"/>
<feBlend mode="normal" in="SourceGraphic" in2="effect1_dropShadow_346_261" result="shape"/>
</filter>
</defs>
</svg>
