<svg width="50" height="50" viewBox="0 0 50 50" fill="none" xmlns="http://www.w3.org/2000/svg">
<path d="M0 0H50V42C50 46.4183 46.4183 50 42 50H8C3.58172 50 0 46.4183 0 42V0Z" fill="#006C3A"/>
<path d="M18.666 24.23V25.322H13.817V29.82H12.517V25.322H7.66795V24.23H15.481C15.5503 23.84 15.6066 23.489 15.65 23.177C15.702 22.865 15.7366 22.566 15.754 22.28L9.01995 22.41L8.99395 21.318L15.793 21.227V19.667H9.11095V18.536H17.041V20.538C17.041 20.9973 17.0193 21.5477 16.976 22.189C16.9326 22.8217 16.8503 23.502 16.729 24.23H18.666ZM30.498 24.295V25.387H19.5V24.295H24.349V22.93H20.748V21.877H22.36V19.381H20.813V18.328H29.185V19.381H27.638V21.877H29.25V22.93H25.649V24.295H30.498ZM22.373 28.572H29.146V29.69H21.086V26.284H22.373V28.572ZM23.621 21.877H26.377V19.381H23.621V21.877ZM37.325 24.321H31.852V18.562H37.325V24.321ZM42.499 22.306H40.796V26.388H39.522V17.834H40.796V21.188H42.499V22.306ZM34.764 28.572H41.121V29.69H33.477V25.712H34.764V28.572ZM33.113 23.229H36.064V19.654H33.113V23.229Z" fill="white"/>
</svg>
