<svg width="70" height="70" viewBox="0 0 70 70" fill="none" xmlns="http://www.w3.org/2000/svg">
<g filter="url(#filter0_d_313_638)">
<path d="M10 6H60V48C60 52.4183 56.4183 56 52 56H18C13.5817 56 10 52.4183 10 48V6Z" fill="#006C3A"/>
</g>
<path d="M34.582 31.23V32.322H29.733V36.82H28.433V32.322H23.584V31.23H31.397C31.4663 30.84 31.5226 30.489 31.566 30.177C31.618 29.865 31.6526 29.566 31.67 29.28L24.936 29.41L24.91 28.318L31.709 28.227V26.667H25.027V25.536H32.957V27.538C32.957 27.9973 32.9353 28.5477 32.892 29.189C32.8486 29.8217 32.7663 30.502 32.645 31.23H34.582ZM46.414 31.295V32.387H35.416V31.295H40.265V29.93H36.664V28.877H38.276V26.381H36.729V25.328H45.101V26.381H43.554V28.877H45.166V29.93H41.565V31.295H46.414ZM38.289 35.572H45.062V36.69H37.002V33.284H38.289V35.572ZM39.537 28.877H42.293V26.381H39.537V28.877Z" fill="white"/>
<defs>
<filter id="filter0_d_313_638" x="0" y="0" width="70" height="70" filterUnits="userSpaceOnUse" color-interpolation-filters="sRGB">
<feFlood flood-opacity="0" result="BackgroundImageFix"/>
<feColorMatrix in="SourceAlpha" type="matrix" values="0 0 0 0 0 0 0 0 0 0 0 0 0 0 0 0 0 0 127 0" result="hardAlpha"/>
<feOffset dy="4"/>
<feGaussianBlur stdDeviation="5"/>
<feComposite in2="hardAlpha" operator="out"/>
<feColorMatrix type="matrix" values="0 0 0 0 0 0 0 0 0 0 0 0 0 0 0 0 0 0 0.2 0"/>
<feBlend mode="normal" in2="BackgroundImageFix" result="effect1_dropShadow_313_638"/>
<feBlend mode="normal" in="SourceGraphic" in2="effect1_dropShadow_313_638" result="shape"/>
</filter>
</defs>
</svg>
