<svg width="77" height="11" viewBox="0 0 77 11" fill="none" xmlns="http://www.w3.org/2000/svg">
<path d="M21.93 9.36H21.23V4.14H19.18V4.45C19.18 5.29 18.98 5.94333 18.58 6.41C18.1867 6.87 17.6367 7.1 16.93 7.1C16.2233 7.1 15.67 6.87 15.27 6.41C14.8767 5.94333 14.68 5.29 14.68 4.45V3.51C14.68 2.67667 14.8767 2.03 15.27 1.57C15.67 1.10333 16.2233 0.869999 16.93 0.869999C17.6367 0.869999 18.1867 1.1 18.58 1.56C18.9733 2.02 19.1733 2.66667 19.18 3.5H21.23V0.219999H21.93V9.36ZM18.49 3.64C18.49 3.26 18.4533 2.93667 18.38 2.67C18.3067 2.40333 18.2 2.18667 18.06 2.02C17.9267 1.84667 17.7633 1.72333 17.57 1.65C17.3767 1.57 17.1633 1.53 16.93 1.53C16.6967 1.53 16.4833 1.57 16.29 1.65C16.0967 1.72333 15.93 1.84667 15.79 2.02C15.6567 2.18667 15.5533 2.40333 15.48 2.67C15.4067 2.93667 15.37 3.26 15.37 3.64V4.33C15.37 4.71 15.4067 5.03667 15.48 5.31C15.5533 5.57667 15.6567 5.79667 15.79 5.97C15.93 6.13667 16.0967 6.26 16.29 6.34C16.4833 6.41333 16.6967 6.45 16.93 6.45C17.1633 6.45 17.3767 6.41333 17.57 6.34C17.7633 6.26 17.9267 6.13667 18.06 5.97C18.2 5.79667 18.3067 5.57667 18.38 5.31C18.4533 5.03667 18.49 4.71 18.49 4.33V3.64ZM23.7216 1.12H27.7116V1.74H26.1016V3.1C26.1016 3.33333 26.1082 3.53333 26.1216 3.7C26.1416 3.86667 26.1716 4.02 26.2116 4.16C26.2582 4.3 26.3216 4.43667 26.4016 4.57C26.4816 4.69667 26.5849 4.84 26.7116 5C26.8782 5.20667 27.0782 5.44 27.3116 5.7C27.5449 5.95333 27.8016 6.22 28.0816 6.5L27.6216 6.95C27.5082 6.84333 27.3916 6.72667 27.2716 6.6C27.1582 6.46667 27.0416 6.33667 26.9216 6.21C26.8082 6.08333 26.6982 5.96 26.5916 5.84C26.4916 5.72 26.3982 5.61333 26.3116 5.52C26.1649 5.35333 26.0416 5.2 25.9416 5.06C25.8482 4.91333 25.7916 4.81333 25.7716 4.76H25.7616C25.7482 4.81333 25.6982 4.90667 25.6116 5.04C25.5316 5.17333 25.4149 5.33 25.2616 5.51C25.0749 5.72333 24.8649 5.96 24.6316 6.22C24.3982 6.47333 24.1216 6.75667 23.8016 7.07L23.3316 6.6C23.4782 6.46 23.6249 6.31667 23.7716 6.17C23.9182 6.02333 24.0549 5.88 24.1816 5.74C24.3149 5.6 24.4349 5.47 24.5416 5.35C24.6549 5.22333 24.7482 5.11 24.8216 5.01C24.9416 4.85667 25.0382 4.71333 25.1116 4.58C25.1916 4.44667 25.2516 4.30667 25.2916 4.16C25.3316 4.01333 25.3582 3.85667 25.3716 3.69C25.3916 3.51667 25.4016 3.32 25.4016 3.1V1.74H23.7216V1.12ZM28.8416 3.31V0.409999H29.5416V8.91H28.8416V3.95H27.2216V3.31H28.8416ZM31.3216 9.36H30.6216V0.219999H31.3216V9.36Z" fill="black"/>
<path d="M60.54 2.94C60.54 2.61333 60.62 2.32 60.78 2.06C60.94 1.79333 61.1567 1.56667 61.43 1.38C61.7033 1.18667 62.02 1.04 62.38 0.94C62.7467 0.833333 63.1367 0.779999 63.55 0.779999C63.9567 0.779999 64.34 0.833333 64.7 0.94C65.0667 1.04 65.3867 1.18667 65.66 1.38C65.94 1.56667 66.16 1.79333 66.32 2.06C66.48 2.32 66.56 2.61333 66.56 2.94V3.43C66.56 3.73 66.49 4.00667 66.35 4.26C66.21 4.51333 66.02 4.73333 65.78 4.92C65.54 5.1 65.26 5.25 64.94 5.37C64.62 5.48333 64.2767 5.55333 63.91 5.58V7.46H67.75V8.07H59.35V7.46H63.19V5.58C62.8167 5.55333 62.47 5.48333 62.15 5.37C61.83 5.25 61.55 5.1 61.31 4.92C61.07 4.73333 60.88 4.51333 60.74 4.26C60.6067 4.00667 60.54 3.73 60.54 3.43V2.94ZM63.55 1.43C63.2233 1.43 62.92 1.47 62.64 1.55C62.36 1.62333 62.1167 1.73 61.91 1.87C61.7033 2.00333 61.54 2.16333 61.42 2.35C61.3 2.53667 61.24 2.74333 61.24 2.97V3.4C61.24 3.62667 61.3 3.83333 61.42 4.02C61.54 4.20667 61.7033 4.37 61.91 4.51C62.1167 4.64333 62.36 4.75 62.64 4.83C62.92 4.90333 63.2233 4.94 63.55 4.94C63.87 4.94 64.17 4.90333 64.45 4.83C64.7367 4.75 64.9833 4.64333 65.19 4.51C65.3967 4.37 65.56 4.20667 65.68 4.02C65.8 3.83333 65.86 3.62667 65.86 3.4V2.97C65.86 2.74333 65.8 2.53667 65.68 2.35C65.56 2.16333 65.3967 2.00333 65.19 1.87C64.9833 1.73 64.7367 1.62333 64.45 1.55C64.17 1.47 63.87 1.43 63.55 1.43ZM76.8516 4.08V4.68H68.4516V4.08H76.8516ZM75.6016 5.63V7.81H70.3916V8.8H75.8716V9.4H69.7016V7.22H74.9116V6.23H69.6516V5.63H75.6016ZM70.4416 2.5H75.6616V3.12H69.7316V0.44H70.4416V2.5Z" fill="black"/>
<circle cx="5.5" cy="5.5" r="5.5" fill="#E6E6E6"/>
<circle cx="50.5" cy="5.5" r="5.5" fill="#33A771"/>
</svg>
