<svg width="102" height="23" viewBox="0 0 102 23" fill="none" xmlns="http://www.w3.org/2000/svg">
<path d="M7.2 2.48C8.17333 2.48 9.04 2.61333 9.8 2.88C10.56 3.14667 11.2 3.56 11.72 4.12C12.24 4.68 12.6333 5.4 12.9 6.28C13.18 7.14667 13.32 8.18667 13.32 9.4V10.22C13.32 11.3267 13.2067 12.2867 12.98 13.1C12.7533 13.9133 12.4267 14.6 12 15.16L13.16 16.3C13.3733 16.5133 13.46 16.7467 13.42 17C13.38 17.24 13.2533 17.4667 13.04 17.68C12.84 17.88 12.6133 18 12.36 18.04C12.12 18.08 11.8933 17.9933 11.68 17.78L10.38 16.5C9.5 16.9267 8.44 17.14 7.2 17.14C6.22667 17.14 5.36 17.0067 4.6 16.74C3.84 16.4733 3.2 16.06 2.68 15.5C2.16 14.94 1.76 14.2267 1.48 13.36C1.21333 12.48 1.08 11.4333 1.08 10.22V9.4C1.08 8.18667 1.21333 7.14667 1.48 6.28C1.76 5.4 2.16 4.68 2.68 4.12C3.2 3.56 3.84 3.14667 4.6 2.88C5.36 2.61333 6.22667 2.48 7.2 2.48ZM7.2 4.82C6.61333 4.82 6.1 4.9 5.66 5.06C5.22 5.22 4.84667 5.48667 4.54 5.86C4.24667 6.22 4.02667 6.70667 3.88 7.32C3.73333 7.93333 3.66 8.69333 3.66 9.6V10.02C3.66 10.9267 3.73333 11.6867 3.88 12.3C4.02667 12.9133 4.24667 13.4067 4.54 13.78C4.84667 14.14 5.22 14.4 5.66 14.56C6.1 14.72 6.61333 14.8 7.2 14.8C7.70667 14.8 8.14 14.7467 8.5 14.64L7.32 13.46C7.10667 13.2467 7.02 13.02 7.06 12.78C7.1 12.5267 7.22 12.3 7.42 12.1C7.63333 11.8867 7.86 11.76 8.1 11.72C8.35333 11.68 8.58667 11.7667 8.8 11.98L10.14 13.32C10.34 12.9333 10.4867 12.4733 10.58 11.94C10.6867 11.4067 10.74 10.7667 10.74 10.02V9.6C10.74 8.69333 10.6667 7.93333 10.52 7.32C10.3733 6.70667 10.1467 6.22 9.84 5.86C9.54667 5.48667 9.18 5.22 8.74 5.06C8.3 4.9 7.78667 4.82 7.2 4.82ZM21.3573 2.7C22.8507 2.7 24.004 3.07333 24.8173 3.82C25.6307 4.55333 26.0373 5.54667 26.0373 6.8V7.16C26.0373 8.08 25.8173 8.84667 25.3773 9.46C24.9507 10.06 24.364 10.5133 23.6173 10.82L26.1373 15.28C26.324 15.6133 26.3573 15.9267 26.2373 16.22C26.1307 16.5133 25.924 16.7333 25.6173 16.88C25.3107 17.0267 24.9973 17.08 24.6773 17.04C24.3573 17 24.1107 16.8067 23.9373 16.46L21.1973 11.22C21.1307 11.2333 21.0573 11.24 20.9773 11.24C20.8973 11.24 20.824 11.24 20.7573 11.24H18.4573V15.94C18.4573 16.3267 18.3307 16.6067 18.0773 16.78C17.824 16.9533 17.524 17.04 17.1773 17.04C16.8307 17.04 16.5307 16.9533 16.2773 16.78C16.024 16.6067 15.8973 16.3267 15.8973 15.94V4.36C15.8973 3.73333 16.0173 3.3 16.2573 3.06C16.5107 2.82 16.9573 2.7 17.5973 2.7H21.3573ZM18.4573 9.1H20.7973C21.7707 9.1 22.464 8.93333 22.8773 8.6C23.2907 8.26667 23.4973 7.77333 23.4973 7.12V6.86C23.4973 6.19333 23.2973 5.69333 22.8973 5.36C22.5107 5.01333 21.884 4.84 21.0173 4.84H18.4573V9.1ZM30.9805 4.9C31.4338 4.9 31.8071 5.05333 32.1005 5.36C32.4071 5.65333 32.5605 6.02667 32.5605 6.48C32.5605 6.93333 32.4071 7.31333 32.1005 7.62C31.8071 7.91333 31.4338 8.06 30.9805 8.06C30.5271 8.06 30.1471 7.91333 29.8405 7.62C29.5471 7.31333 29.4005 6.93333 29.4005 6.48C29.4005 6.02667 29.5471 5.65333 29.8405 5.36C30.1471 5.05333 30.5271 4.9 30.9805 4.9ZM30.9805 12.7C31.4338 12.7 31.8071 12.8533 32.1005 13.16C32.4071 13.4533 32.5605 13.8267 32.5605 14.28C32.5605 14.7333 32.4071 15.1133 32.1005 15.42C31.8071 15.7133 31.4338 15.86 30.9805 15.86C30.5271 15.86 30.1471 15.7133 29.8405 15.42C29.5471 15.1133 29.4005 14.7333 29.4005 14.28C29.4005 13.8267 29.5471 13.4533 29.8405 13.16C30.1471 12.8533 30.5271 12.7 30.9805 12.7ZM83.5447 8.22C81.9847 8.22 81.2047 9.27333 81.2047 11.38V11.78C81.2047 12.86 81.378 13.66 81.7247 14.18C82.0847 14.6867 82.658 14.94 83.4447 14.94C83.858 14.94 84.2247 14.8733 84.5447 14.74C84.878 14.5933 85.1514 14.4 85.3647 14.16C85.5914 13.9067 85.7647 13.62 85.8847 13.3C86.0047 12.9667 86.0647 12.6133 86.0647 12.24V10.4C86.0647 10.1467 86.0114 9.89333 85.9047 9.64C85.8114 9.37333 85.658 9.14 85.4447 8.94C85.2447 8.72667 84.9847 8.55333 84.6647 8.42C84.358 8.28667 83.9847 8.22 83.5447 8.22ZM87.2847 2.08C87.618 2.08 87.9114 2.16667 88.1647 2.34C88.418 2.51333 88.5447 2.78 88.5447 3.14V16.02C88.5447 16.3667 88.418 16.6267 88.1647 16.8C87.9247 16.96 87.6514 17.04 87.3447 17.04C87.038 17.04 86.7647 16.96 86.5247 16.8C86.2847 16.6267 86.1647 16.3667 86.1647 16.02V15.62H86.1047C85.8114 16.1533 85.378 16.5333 84.8047 16.76C84.2314 16.9733 83.6114 17.08 82.9447 17.08C81.5447 17.08 80.4847 16.64 79.7647 15.76C79.058 14.8667 78.7047 13.56 78.7047 11.84V11.32C78.7047 10.4533 78.8114 9.69333 79.0247 9.04C79.238 8.37333 79.538 7.82 79.9247 7.38C80.3114 6.94 80.7714 6.61333 81.3047 6.4C81.8514 6.17333 82.458 6.06 83.1247 6.06C83.5647 6.06 83.9447 6.1 84.2647 6.18C84.598 6.26 84.878 6.36 85.1047 6.48C85.3447 6.58667 85.538 6.71333 85.6847 6.86C85.8314 6.99333 85.9447 7.12 86.0247 7.24V3.14C86.0247 2.78 86.1514 2.51333 86.4047 2.34C86.6714 2.16667 86.9647 2.08 87.2847 2.08ZM95.9508 8.14C95.1108 8.14 94.4774 8.36 94.0508 8.8C93.6374 9.24 93.4308 9.8 93.4308 10.48V10.62H98.3908V10.42C98.3908 9.76667 98.2041 9.22667 97.8308 8.8C97.4574 8.36 96.8308 8.14 95.9508 8.14ZM95.9908 6.06C96.7108 6.06 97.3641 6.16667 97.9508 6.38C98.5374 6.59333 99.0441 6.9 99.4708 7.3C99.8974 7.7 100.224 8.19333 100.451 8.78C100.691 9.36667 100.811 10.04 100.811 10.8V10.84C100.811 11.4667 100.684 11.9 100.431 12.14C100.191 12.38 99.7508 12.5 99.1108 12.5H93.4308V12.54C93.4308 13.26 93.6508 13.8467 94.0908 14.3C94.5441 14.7533 95.2174 14.98 96.1108 14.98C96.6708 14.98 97.1574 14.94 97.5708 14.86C97.9974 14.7667 98.4308 14.62 98.8708 14.42C99.1374 14.3 99.3974 14.2867 99.6508 14.38C99.9041 14.46 100.091 14.64 100.211 14.92C100.331 15.2 100.357 15.4733 100.291 15.74C100.224 15.9933 100.057 16.1867 99.7908 16.32C99.2841 16.5733 98.7308 16.7667 98.1308 16.9C97.5308 17.02 96.8241 17.08 96.0108 17.08C94.4108 17.08 93.1708 16.6467 92.2908 15.78C91.4108 14.9 90.9708 13.5867 90.9708 11.84V11.32C90.9708 9.58667 91.4174 8.28 92.3108 7.4C93.2041 6.50667 94.4308 6.06 95.9908 6.06Z" fill="black"/>
<path d="M44.6127 2.7C44.9193 2.7 45.1393 2.80667 45.2727 3.02C45.4193 3.22 45.4927 3.46667 45.4927 3.76C45.4927 4.04 45.4193 4.28667 45.2727 4.5C45.1393 4.71333 44.9193 4.82 44.6127 4.82H38.6327V8.6H44.2127C44.506 8.6 44.7193 8.70667 44.8527 8.92C44.9993 9.12 45.0727 9.36 45.0727 9.64C45.0727 9.92 44.9993 10.1667 44.8527 10.38C44.7193 10.58 44.506 10.68 44.2127 10.68H38.6327V14.8H44.7527C45.0593 14.8 45.2793 14.9067 45.4127 15.12C45.5593 15.3333 45.6327 15.58 45.6327 15.86C45.6327 16.1533 45.5593 16.4067 45.4127 16.62C45.2793 16.82 45.0593 16.92 44.7527 16.92H37.7927C37.1527 16.92 36.706 16.8 36.4527 16.56C36.2127 16.32 36.0927 15.8867 36.0927 15.26V4.36C36.0927 3.73333 36.2127 3.3 36.4527 3.06C36.706 2.82 37.1527 2.7 37.7927 2.7H44.6127ZM53.8206 2.48C54.7406 2.48 55.5406 2.58 56.2206 2.78C56.9006 2.98 57.474 3.24 57.9406 3.56C58.2473 3.77333 58.414 4.03333 58.4406 4.34C58.4673 4.64667 58.3873 4.93333 58.2006 5.2C58.0273 5.45333 57.8006 5.62 57.5206 5.7C57.2406 5.78 56.9606 5.73333 56.6806 5.56C56.254 5.30667 55.8206 5.12667 55.3806 5.02C54.9406 4.9 54.4006 4.84 53.7606 4.84C52.654 4.84 51.8006 5.20667 51.2006 5.94C50.6006 6.66 50.3006 7.88 50.3006 9.6V10.02C50.3006 11.7 50.5873 12.9133 51.1606 13.66C51.734 14.3933 52.6073 14.76 53.7806 14.76C54.4473 14.76 55.0273 14.6867 55.5206 14.54C56.0273 14.38 56.514 14.1467 56.9806 13.84C57.2473 13.6533 57.5273 13.5867 57.8206 13.64C58.114 13.68 58.3606 13.84 58.5606 14.12C58.7606 14.4 58.8406 14.7067 58.8006 15.04C58.7606 15.3733 58.5806 15.6533 58.2606 15.88C57.6873 16.2933 57.014 16.6067 56.2406 16.82C55.4806 17.0333 54.6406 17.14 53.7206 17.14C52.774 17.14 51.9273 17.0067 51.1806 16.74C50.4473 16.4733 49.8206 16.06 49.3006 15.5C48.794 14.94 48.4006 14.2267 48.1206 13.36C47.854 12.48 47.7206 11.4333 47.7206 10.22V9.4C47.7206 8.18667 47.854 7.14667 48.1206 6.28C48.4006 5.4 48.8006 4.68 49.3206 4.12C49.8406 3.56 50.4806 3.14667 51.2406 2.88C52.0006 2.61333 52.8606 2.48 53.8206 2.48Z" fill="#006C3A"/>
<path d="M62.0159 17C63.734 12.9541 66.0582 8.84691 71.6805 7.20452M62.0159 11.1764C61.789 7.57734 63.9725 2.88892 70.1223 3.00201C73.7673 3.06903 76.5661 6.50678 75.2685 9.91365C74.1103 12.9545 71.4631 15.6245 66.5337 14.6706" stroke="#006C3A" stroke-width="2" stroke-linecap="round" stroke-linejoin="round"/>
</svg>
