<svg width="58" height="58" viewBox="0 0 58 58" fill="none" xmlns="http://www.w3.org/2000/svg">
<g filter="url(#filter0_d_1099_1055)">
<circle cx="27" cy="27" r="24" fill="#E1F4EB"/>
<circle cx="27" cy="27" r="23" stroke="#006C3A" stroke-width="2"/>
</g>
<rect x="24.9039" y="30.1918" width="3.91779" height="12.8082" fill="#684E2F"/>
<rect x="33.6438" y="39.6844" width="3.31506" height="13.7123" rx="1.65753" transform="rotate(90 33.6438 39.6844)" fill="#684E2F"/>
<circle cx="19.5548" cy="28.4586" r="6.55477" fill="#006C3A"/>
<circle cx="21.815" cy="20.9247" r="6.55477" fill="#006C3A"/>
<circle cx="32.6644" cy="20.9247" r="6.55477" fill="#006C3A"/>
<circle cx="27.0889" cy="16.5548" r="6.55477" fill="#006C3A"/>
<circle cx="27.0889" cy="28.4586" r="6.55477" fill="#006C3A"/>
<circle cx="34.1712" cy="28.4586" r="6.55477" fill="#006C3A"/>
<path d="M23.4446 28.325L29.0476 18.965H30.5426L24.9526 28.325H23.4446ZM24.0166 18.783C24.7012 18.783 25.2429 18.9867 25.6416 19.394C26.0402 19.7927 26.2396 20.3343 26.2396 21.019V21.526C26.2396 22.2107 26.0402 22.7567 25.6416 23.164C25.2429 23.5627 24.7012 23.762 24.0166 23.762C23.3319 23.762 22.7902 23.5627 22.3916 23.164C21.9929 22.7567 21.7936 22.2107 21.7936 21.526V21.019C21.7936 20.3343 21.9929 19.7927 22.3916 19.394C22.7902 18.9867 23.3319 18.783 24.0166 18.783ZM24.0166 22.657C24.3806 22.657 24.6276 22.553 24.7576 22.345C24.8876 22.137 24.9526 21.8553 24.9526 21.5V21.045C24.9526 20.6983 24.8876 20.421 24.7576 20.213C24.6276 19.9963 24.3806 19.888 24.0166 19.888C23.6526 19.888 23.4056 19.9963 23.2756 20.213C23.1456 20.421 23.0806 20.6983 23.0806 21.045V21.5C23.0806 21.8553 23.1456 22.137 23.2756 22.345C23.4056 22.553 23.6526 22.657 24.0166 22.657ZM29.9836 23.463C30.6682 23.463 31.2099 23.6667 31.6086 24.074C32.0072 24.4727 32.2066 25.0143 32.2066 25.699V26.206C32.2066 26.8907 32.0072 27.4367 31.6086 27.844C31.2099 28.2427 30.6682 28.442 29.9836 28.442C29.2989 28.442 28.7572 28.2427 28.3586 27.844C27.9599 27.4367 27.7606 26.8907 27.7606 26.206V25.699C27.7606 25.0143 27.9599 24.4727 28.3586 24.074C28.7572 23.6667 29.2989 23.463 29.9836 23.463ZM29.9836 27.337C30.3476 27.337 30.5946 27.233 30.7246 27.025C30.8546 26.817 30.9196 26.5353 30.9196 26.18V25.725C30.9196 25.3783 30.8546 25.101 30.7246 24.893C30.5946 24.6763 30.3476 24.568 29.9836 24.568C29.6196 24.568 29.3726 24.6763 29.2426 24.893C29.1126 25.101 29.0476 25.3783 29.0476 25.725V26.18C29.0476 26.5353 29.1126 26.817 29.2426 27.025C29.3726 27.233 29.6196 27.337 29.9836 27.337Z" fill="white"/>
<defs>
<filter id="filter0_d_1099_1055" x="0" y="0" width="58" height="58" filterUnits="userSpaceOnUse" color-interpolation-filters="sRGB">
<feFlood flood-opacity="0" result="BackgroundImageFix"/>
<feColorMatrix in="SourceAlpha" type="matrix" values="0 0 0 0 0 0 0 0 0 0 0 0 0 0 0 0 0 0 127 0" result="hardAlpha"/>
<feOffset dx="2" dy="2"/>
<feGaussianBlur stdDeviation="2.5"/>
<feComposite in2="hardAlpha" operator="out"/>
<feColorMatrix type="matrix" values="0 0 0 0 0 0 0 0 0 0 0 0 0 0 0 0 0 0 0.25 0"/>
<feBlend mode="normal" in2="BackgroundImageFix" result="effect1_dropShadow_1099_1055"/>
<feBlend mode="normal" in="SourceGraphic" in2="effect1_dropShadow_1099_1055" result="shape"/>
</filter>
</defs>
</svg>
