<svg width="106" height="63" viewBox="0 0 106 63" fill="none" xmlns="http://www.w3.org/2000/svg">
<g filter="url(#filter0_d_330_261)">
<rect x="10" y="6" width="86" height="43" rx="21.5" fill="white"/>
</g>
<path d="M19 28.6H21.1111V26.4H19V28.6ZM19 33H21.1111V30.8H19V33ZM19 24.2H21.1111V22H19V24.2ZM23.2222 28.6H38V26.4H23.2222V28.6ZM23.2222 33H38V30.8H23.2222V33ZM23.2222 22V24.2H38V22H23.2222Z" fill="black"/>
<path d="M51.0729 21.341V25.462H47.7059V26.931H52.7109V27.711H41.7909V26.931H46.7959V25.462H43.4289V21.341H51.0729ZM44.3259 24.682H50.1759V22.121H44.3259V24.682ZM43.1819 29.076H51.1379V32.859H50.2279V29.869H43.1819V29.076ZM55.222 21.302H62.853V24.071H56.132V25.319H63.113V26.086H59.538V27.321H64.543V28.101H53.623V27.321H58.628V26.086H55.261V23.317H61.982V22.069H55.222V21.302ZM55.014 29.271H62.97V32.872H62.06V30.064H55.014V29.271ZM74.763 21.796V27.724H71.37V30.298H76.375V31.091H65.455V30.298H70.46V27.724H67.067V21.796H67.964V23.928H73.866V21.796H74.763ZM73.866 26.957V24.721H67.964V26.957H73.866ZM87.063 32.768H86.14V20.886H87.063V32.768ZM77.898 29.323C78.8947 28.751 79.6877 28.2613 80.277 27.854C80.8664 27.438 81.3127 27.0523 81.616 26.697C81.9194 26.333 82.1144 25.969 82.201 25.605C82.2964 25.241 82.344 24.8163 82.344 24.331V22.836H78.028V22.004H83.241V24.344C83.241 24.7427 83.2194 25.1023 83.176 25.423C83.1327 25.7437 83.046 26.047 82.916 26.333C82.7947 26.619 82.6214 26.8963 82.396 27.165C82.1707 27.4337 81.876 27.7153 81.512 28.01C81.1567 28.3047 80.719 28.621 80.199 28.959C79.6877 29.2883 79.081 29.6567 78.379 30.064L77.898 29.323Z" fill="black"/>
<defs>
<filter id="filter0_d_330_261" x="0" y="0" width="106" height="63" filterUnits="userSpaceOnUse" color-interpolation-filters="sRGB">
<feFlood flood-opacity="0" result="BackgroundImageFix"/>
<feColorMatrix in="SourceAlpha" type="matrix" values="0 0 0 0 0 0 0 0 0 0 0 0 0 0 0 0 0 0 127 0" result="hardAlpha"/>
<feOffset dy="4"/>
<feGaussianBlur stdDeviation="5"/>
<feComposite in2="hardAlpha" operator="out"/>
<feColorMatrix type="matrix" values="0 0 0 0 0 0 0 0 0 0 0 0 0 0 0 0 0 0 0.2 0"/>
<feBlend mode="normal" in2="BackgroundImageFix" result="effect1_dropShadow_330_261"/>
<feBlend mode="normal" in="SourceGraphic" in2="effect1_dropShadow_330_261" result="shape"/>
</filter>
</defs>
</svg>