<svg width="50" height="50" viewBox="0 0 50 50" fill="none" xmlns="http://www.w3.org/2000/svg">
<path d="M0 8C0 3.58172 3.58172 0 8 0H42C46.4183 0 50 3.58172 50 8V50H0V8Z" fill="white"/>
<path d="M11.529 22.553C11.4856 22.6657 11.3773 22.8173 11.204 23.008C11.0393 23.1987 10.8573 23.385 10.658 23.567C10.3806 23.8183 10.0686 24.0783 9.72195 24.347C9.38395 24.607 9.03295 24.8627 8.66895 25.114L7.91495 24.191C8.33095 23.8963 8.72529 23.606 9.09795 23.32C9.47062 23.034 9.76962 22.7827 9.99495 22.566C10.151 22.4187 10.281 22.2713 10.385 22.124C10.4976 21.9767 10.5843 21.825 10.645 21.669C10.7143 21.5043 10.762 21.3267 10.788 21.136C10.8226 20.9453 10.84 20.733 10.84 20.499V19.706H8.31795V18.601H14.506V19.706H12.14V20.447C12.14 20.863 12.1833 21.2097 12.27 21.487C12.3566 21.7557 12.5386 22.0113 12.816 22.254C13.128 22.5313 13.453 22.7957 13.791 23.047C14.129 23.2983 14.4886 23.5497 14.87 23.801L14.142 24.737C13.804 24.503 13.4876 24.2733 13.193 24.048C12.8983 23.8227 12.595 23.58 12.283 23.32C12.0836 23.1553 11.919 23.0123 11.789 22.891C11.6676 22.761 11.5853 22.6483 11.542 22.553H11.529ZM16.404 26.375V21.994H14.194V20.889H16.404V17.834H17.678V26.375H16.404ZM11.477 28.572H17.925V29.69H10.19V25.686H11.477V28.572ZM26.728 24.035C26.2687 24.0957 25.8397 24.1433 25.441 24.178C25.0423 24.2127 24.6003 24.243 24.115 24.269C23.6297 24.2863 23.0663 24.2993 22.425 24.308C21.7837 24.3167 20.995 24.321 20.059 24.321V18.614H25.61V19.719H21.32V23.216C21.9873 23.216 22.5507 23.2117 23.01 23.203C23.478 23.1943 23.9027 23.1813 24.284 23.164C24.6653 23.1467 25.0337 23.125 25.389 23.099C25.7443 23.0643 26.1473 23.021 26.598 22.969L26.728 24.035ZM30.667 22.072H28.964V26.388H27.69V17.834H28.964V20.954H30.667V22.072ZM22.932 28.572H29.289V29.69H21.645V25.712H22.932V28.572ZM35.323 23.918C35.2623 24.0653 35.1713 24.217 35.05 24.373C34.9287 24.529 34.764 24.7197 34.556 24.945C34.2873 25.2397 33.9883 25.556 33.659 25.894C33.3297 26.2233 32.944 26.5917 32.502 26.999L31.657 26.128C32.047 25.7727 32.4023 25.4347 32.723 25.114C33.0523 24.7933 33.3643 24.4683 33.659 24.139C33.8757 23.905 34.049 23.6927 34.179 23.502C34.309 23.3113 34.4087 23.125 34.478 22.943C34.5473 22.761 34.595 22.5747 34.621 22.384C34.647 22.1933 34.66 21.9767 34.66 21.734V20.031H32.086V18.913H38.469V20.031H35.96V21.734C35.96 21.994 35.973 22.2193 35.999 22.41C36.025 22.6007 36.0727 22.7827 36.142 22.956C36.22 23.1293 36.3283 23.3113 36.467 23.502C36.6057 23.684 36.792 23.9007 37.026 24.152C37.3033 24.4553 37.585 24.7457 37.871 25.023C38.1657 25.3003 38.508 25.608 38.898 25.946L38.053 26.817C37.611 26.4097 37.2427 26.063 36.948 25.777C36.6533 25.4823 36.3803 25.2007 36.129 24.932C35.947 24.7327 35.7823 24.5463 35.635 24.373C35.4877 24.1997 35.388 24.048 35.336 23.918H35.323ZM40.094 29.82V17.834H41.381V29.82H40.094Z" fill="black"/>
</svg>
