<svg width="39" height="42" viewBox="0 0 39 42" fill="none" xmlns="http://www.w3.org/2000/svg">
<circle cx="17.5" cy="17.5" r="17.5" fill="#C8C8C8"/>
<circle cx="30.5" cy="30.5" r="8" fill="white" stroke="#006C3A"/>
<path d="M17.74 10.58C18.0467 10.58 18.32 10.6733 18.56 10.86C18.8133 11.0333 18.9933 11.34 19.1 11.78L20.22 16.54H22.32L23.46 11.44C23.54 11.08 23.7133 10.84 23.98 10.72C24.26 10.5867 24.5467 10.5533 24.84 10.62C25.16 10.6867 25.4 10.84 25.56 11.08C25.7333 11.32 25.7733 11.6267 25.68 12L24.54 16.54H26.14C26.34 16.54 26.4867 16.6133 26.58 16.76C26.6733 16.8933 26.72 17.06 26.72 17.26C26.72 17.4467 26.6733 17.6133 26.58 17.76C26.4867 17.8933 26.34 17.96 26.14 17.96H24.2L22.74 23.84C22.6333 24.28 22.4467 24.5933 22.18 24.78C21.9267 24.9533 21.66 25.04 21.38 25.04C21.1 25.04 20.8267 24.9533 20.56 24.78C20.3067 24.5933 20.1267 24.2667 20.02 23.8L18.66 17.96H16.74L15.26 23.84C15.1533 24.28 14.9667 24.5933 14.7 24.78C14.4333 24.9533 14.16 25.04 13.88 25.04C13.6 25.04 13.3267 24.9533 13.06 24.78C12.8067 24.5933 12.6267 24.2733 12.52 23.82L11.06 17.96H9.1C8.9 17.96 8.75333 17.8933 8.66 17.76C8.56667 17.6133 8.52 17.4467 8.52 17.26C8.52 17.06 8.56667 16.8933 8.66 16.76C8.75333 16.6133 8.9 16.54 9.1 16.54H10.72L9.6 12C9.50667 11.6267 9.54 11.32 9.7 11.08C9.87333 10.84 10.1267 10.6867 10.46 10.62C10.7667 10.5533 11.0533 10.58 11.32 10.7C11.5867 10.8067 11.7667 11.0533 11.86 11.44L13 16.54H15.18L16.38 11.78C16.4867 11.34 16.6533 11.0333 16.88 10.86C17.12 10.6733 17.4067 10.58 17.74 10.58ZM14.02 21.12L14.82 17.96H13.32L14.02 21.12ZM21.3 21.1L22 17.96H20.56L21.3 21.1ZM17.1 16.54H18.32L17.74 14.02L17.1 16.54Z" fill="white"/>
<path d="M30.5 26.73C30.71 26.73 30.9 26.79 31.07 26.91C31.25 27.02 31.34 27.195 31.34 27.435V29.865H33.785C34.005 29.865 34.165 29.94 34.265 30.09C34.375 30.24 34.43 30.42 34.43 30.63C34.43 30.84 34.375 31.025 34.265 31.185C34.165 31.335 34.005 31.41 33.785 31.41H31.34V34.065C31.34 34.305 31.25 34.485 31.07 34.605C30.9 34.715 30.71 34.77 30.5 34.77C30.29 34.77 30.095 34.715 29.915 34.605C29.745 34.485 29.66 34.305 29.66 34.065V31.41H27.215C26.995 31.41 26.83 31.335 26.72 31.185C26.62 31.025 26.57 30.84 26.57 30.63C26.57 30.42 26.62 30.24 26.72 30.09C26.83 29.94 26.995 29.865 27.215 29.865H29.66V27.435C29.66 27.195 29.745 27.02 29.915 26.91C30.095 26.79 30.29 26.73 30.5 26.73Z" fill="#006C3A"/>
</svg>
