<svg width="38" height="38" viewBox="0 0 38 38" fill="none" xmlns="http://www.w3.org/2000/svg">
<path d="M4.22222 25.3333H0V33.7778C0 36.1 1.9 38 4.22222 38H12.6667V33.7778H4.22222V25.3333ZM4.22222 4.22222H12.6667V0H4.22222C1.9 0 0 1.9 0 4.22222V12.6667H4.22222V4.22222ZM33.7778 0H25.3333V4.22222H33.7778V12.6667H38V4.22222C38 1.9 36.1 0 33.7778 0ZM33.7778 33.7778H25.3333V38H33.7778C36.1 38 38 36.1 38 33.7778V25.3333H33.7778V33.7778ZM19 10.5556C14.3344 10.5556 10.5556 14.3344 10.5556 19C10.5556 23.6656 14.3344 27.4444 19 27.4444C23.6656 27.4444 27.4444 23.6656 27.4444 19C27.4444 14.3344 23.6656 10.5556 19 10.5556ZM19 23.2222C16.6778 23.2222 14.7778 21.3222 14.7778 19C14.7778 16.6778 16.6778 14.7778 19 14.7778C21.3222 14.7778 23.2222 16.6778 23.2222 19C23.2222 21.3222 21.3222 23.2222 19 23.2222Z" fill="#006C3A"/>
</svg>
