<svg width="65" height="50" viewBox="0 0 65 50" fill="none" xmlns="http://www.w3.org/2000/svg">
<circle cx="12.7869" cy="26.0558" r="12.7869" fill="#C4C4C4"/>
<circle cx="49.0164" cy="26.0558" r="12.7869" fill="#C4C4C4"/>
<circle cx="30.9016" cy="26.0559" r="14.918" fill="#C4C4C4"/>
<path d="M26.9352 43.8755L26.8929 43.8365C26.5209 43.4794 25.9178 43.4794 25.5459 43.8365L23.6606 45.6386V35.4927C23.6606 34.9905 23.2351 34.5804 22.7081 34.5804H22.6489C22.122 34.5804 21.6965 34.9877 21.6965 35.4927V45.6442L19.783 43.8169C19.411 43.4599 18.808 43.4599 18.436 43.8169L18.3937 43.856C18.0218 44.2131 18.0218 44.7877 18.3937 45.1448L21.9783 48.5705C22.0262 48.6151 22.0769 48.657 22.1333 48.6904C22.5052 48.9415 23.0209 48.908 23.3535 48.59L26.938 45.1643C27.3099 44.8073 27.3099 44.2326 26.938 43.8755H26.9352Z" fill="#FF7E7E"/>
<path d="M37.6239 43.8755L37.5816 43.8365C37.2096 43.4794 36.6066 43.4794 36.2346 43.8365L34.3494 45.6386V35.4927C34.3494 34.9905 33.9238 34.5804 33.3969 34.5804H33.3377C32.8107 34.5804 32.3852 34.9877 32.3852 35.4927V45.6442L30.4718 43.8169C30.0998 43.4599 29.4967 43.4599 29.1248 43.8169L29.0825 43.856C28.7105 44.2131 28.7105 44.7877 29.0825 45.1448L32.667 48.5705C32.7149 48.6151 32.7656 48.657 32.822 48.6904C33.194 48.9415 33.7097 48.908 34.0422 48.59L37.6267 45.1643C37.9987 44.8073 37.9987 44.2326 37.6267 43.8755H37.6239Z" fill="#FF7E7E"/>
<path d="M48.3154 43.8755L48.2732 43.8365C47.9012 43.4794 47.2981 43.4794 46.9262 43.8365L45.0409 45.6386V35.4927C45.0409 34.9905 44.6154 34.5804 44.0884 34.5804H44.0292C43.5023 34.5804 43.0768 34.9877 43.0768 35.4927V45.6442L41.1633 43.8169C40.7913 43.4599 40.1883 43.4599 39.8163 43.8169L39.774 43.856C39.4021 44.2131 39.4021 44.7877 39.774 45.1448L43.3586 48.5705C43.4065 48.6151 43.4572 48.657 43.5135 48.6904C43.8855 48.9415 44.4012 48.908 44.7337 48.59L48.3183 45.1643C48.6902 44.8073 48.6902 44.2326 48.3183 43.8755H48.3154Z" fill="#FF7E7E"/>
<path d="M24.2063 20.3672C25.4943 20.3672 26.4463 20.6752 27.0903 21.1232C27.5103 21.4172 27.5383 21.8932 27.2723 22.2712C27.0343 22.6213 26.6003 22.7612 26.2083 22.5232C25.6203 22.1732 25.0463 22.0192 24.1643 22.0192C22.6243 22.0192 21.7423 22.9432 21.7423 25.3512V25.6452C21.7423 27.9832 22.5403 28.9632 24.1783 28.9632C25.1023 28.9632 25.7743 28.7532 26.4183 28.3192C26.7963 28.0672 27.2443 28.1232 27.5243 28.5152C27.8043 28.9072 27.7623 29.4252 27.3143 29.7472C26.5163 30.3212 25.4243 30.6293 24.1363 30.6293C21.5043 30.6293 19.9363 29.1872 19.9363 25.7852V25.2112C19.9363 21.8092 21.5043 20.3672 24.2063 20.3672ZM33.4352 20.3672C36.1512 20.3672 37.7192 21.8092 37.7192 25.2112V25.7852C37.7192 29.1872 36.1512 30.6293 33.4352 30.6293C30.7192 30.6293 29.1512 29.1872 29.1512 25.7852V25.2112C29.1512 21.8092 30.7192 20.3672 33.4352 20.3672ZM33.4352 22.0052C31.7972 22.0052 30.9572 22.8173 30.9572 25.3512V25.6452C30.9572 28.1792 31.7972 28.9912 33.4352 28.9912C35.0732 28.9912 35.9132 28.1792 35.9132 25.6452V25.3512C35.9132 22.8173 35.0732 22.0052 33.4352 22.0052ZM41.4713 23.2712C43.1013 23.2712 43.8113 24.1312 43.8113 25.1012V25.2112C43.8113 25.9712 43.4413 26.6712 42.7713 27.3412L40.6613 29.4312H43.6913C44.0013 29.4312 44.1413 29.6712 44.1413 29.9612C44.1413 30.2512 44.0013 30.4912 43.6913 30.4912H39.8813C39.2513 30.4912 38.9813 30.2712 38.9813 29.8012C38.9813 29.5912 39.1013 29.4112 39.3113 29.1912L41.6313 26.8512C42.3713 26.1112 42.5213 25.7312 42.5213 25.2212V25.1712C42.5213 24.7312 42.1813 24.4112 41.4913 24.4112C40.9013 24.4112 40.5313 24.6412 40.1813 25.0912C39.9913 25.3412 39.6813 25.3913 39.4213 25.2012C39.1613 25.0112 39.0513 24.7112 39.2513 24.4112C39.6913 23.7612 40.4213 23.2712 41.4713 23.2712Z" fill="#4A4A4A"/>
<circle cx="2.80093" cy="2.80093" r="2.80093" transform="matrix(0.916433 0.400188 0.400188 -0.916433 52.8523 44.882)" fill="#C4C4C4"/>
<circle cx="3.50116" cy="3.50116" r="3.50116" transform="matrix(0.916433 0.400188 0.400188 -0.916433 55.7806 46.9248)" fill="#C4C4C4"/>
<circle cx="16.5889" cy="6.561" r="2.66683" transform="rotate(-23.5899 16.5889 6.561)" fill="#C4C4C4"/>
<circle cx="20.2548" cy="4.96018" r="3.33354" transform="rotate(-23.5899 20.2548 4.96018)" fill="#C4C4C4"/>
</svg>
