<svg width="204" height="45" viewBox="0 0 204 45" fill="none" xmlns="http://www.w3.org/2000/svg">
<path d="M14.4 4.96C22.16 4.96 26.64 9.08 26.64 18.8V20.44C26.64 24.84 25.72 28.08 24 30.32L26.32 32.6C27.16 33.44 26.92 34.52 26.08 35.36C25.28 36.16 24.2 36.4 23.36 35.56L20.76 33C19.04 33.84 16.92 34.28 14.4 34.28C6.64 34.28 2.16 30.16 2.16 20.44V18.8C2.16 9.08 6.64 4.96 14.4 4.96ZM14.4 9.64C9.72 9.64 7.32 11.96 7.32 19.2V20.04C7.32 27.28 9.72 29.6 14.4 29.6C15.44 29.6 16.32 29.48 17 29.28L14.64 26.92C13.8 26.08 14.04 25 14.84 24.2C15.68 23.36 16.76 23.12 17.6 23.96L20.28 26.64C21.08 25.12 21.48 23 21.48 20.04V19.2C21.48 11.96 19.08 9.64 14.4 9.64ZM35.1947 5.4H42.7147C48.6347 5.4 52.0747 8.6 52.0747 13.6V14.32C52.0747 18 50.1947 20.44 47.2347 21.64L52.2747 30.56C52.9947 31.88 52.4747 33.16 51.2347 33.76C49.9947 34.32 48.5547 34.28 47.8747 32.92L42.3947 22.44C42.1147 22.48 41.7947 22.48 41.5147 22.48H36.9147V31.88C36.9147 33.4 35.7147 34.08 34.3547 34.08C32.9947 34.08 31.7947 33.4 31.7947 31.88V8.72C31.7947 6.2 32.6347 5.4 35.1947 5.4ZM36.9147 9.68V18.2H41.5947C45.4747 18.2 46.9947 16.84 46.9947 14.24V13.72C46.9947 11.08 45.4747 9.68 42.0347 9.68H36.9147ZM61.9609 9.8C63.7609 9.8 65.1209 11.16 65.1209 12.96C65.1209 14.76 63.7609 16.12 61.9609 16.12C60.1609 16.12 58.8009 14.76 58.8009 12.96C58.8009 11.16 60.1609 9.8 61.9609 9.8ZM61.9609 25.4C63.7609 25.4 65.1209 26.76 65.1209 28.56C65.1209 30.36 63.7609 31.72 61.9609 31.72C60.1609 31.72 58.8009 30.36 58.8009 28.56C58.8009 26.76 60.1609 25.4 61.9609 25.4ZM167.089 16.44C163.929 16.44 162.409 18.6 162.409 22.76V23.56C162.409 27.84 163.769 29.88 166.889 29.88C170.209 29.88 172.129 27.48 172.129 24.48V20.8C172.129 18.76 170.569 16.44 167.089 16.44ZM174.569 4.16C175.889 4.16 177.089 4.84 177.089 6.28V32.04C177.089 33.44 175.929 34.08 174.689 34.08C173.489 34.08 172.329 33.44 172.329 32.04V31.24H172.209C171.049 33.36 168.529 34.16 165.889 34.16C160.329 34.16 157.409 30.52 157.409 23.68V22.64C157.409 15.68 160.929 12.12 166.249 12.12C169.729 12.12 171.409 13.52 172.049 14.48V6.28C172.049 4.84 173.289 4.16 174.569 4.16ZM191.902 16.28C188.542 16.28 186.862 18.24 186.862 20.96V21.24H196.782V20.84C196.782 18.24 195.422 16.28 191.902 16.28ZM191.982 12.12C197.702 12.12 201.622 15.56 201.622 21.6V21.68C201.622 24.2 200.782 25 198.222 25H186.862V25.08C186.862 27.92 188.662 29.96 192.222 29.96C194.462 29.96 195.982 29.64 197.742 28.84C198.822 28.36 199.942 28.72 200.422 29.84C200.902 30.96 200.622 32.12 199.582 32.64C197.582 33.64 195.262 34.16 192.022 34.16C185.662 34.16 181.942 30.64 181.942 23.68V22.64C181.942 15.72 185.742 12.12 191.982 12.12Z" fill="black"/>
<path d="M75.5853 5.4H89.2253C90.4253 5.4 90.9853 6.36 90.9853 7.52C90.9853 8.64 90.4253 9.64 89.2253 9.64H77.2653V17.2H88.4253C89.5853 17.2 90.1453 18.16 90.1453 19.28C90.1453 20.4 89.5853 21.36 88.4253 21.36H77.2653V29.6H89.5053C90.7053 29.6 91.2653 30.6 91.2653 31.72C91.2653 32.88 90.7053 33.84 89.5053 33.84H75.5853C73.0253 33.84 72.1853 33.04 72.1853 30.52V8.72C72.1853 6.2 73.0253 5.4 75.5853 5.4ZM107.641 4.96C111.321 4.96 114.041 5.84 115.881 7.12C117.081 7.96 117.161 9.32 116.401 10.4C115.721 11.4 114.481 11.8 113.361 11.12C111.681 10.12 110.041 9.68 107.521 9.68C103.121 9.68 100.601 12.32 100.601 19.2V20.04C100.601 26.72 102.881 29.52 107.561 29.52C110.201 29.52 112.121 28.92 113.961 27.68C115.041 26.96 116.321 27.12 117.121 28.24C117.921 29.36 117.801 30.84 116.521 31.76C114.241 33.4 111.121 34.28 107.441 34.28C99.9213 34.28 95.4413 30.16 95.4413 20.44V18.8C95.4413 9.08 99.9213 4.96 107.641 4.96Z" fill="#006C3A"/>
<path d="M122.033 35.0497C125.646 26.3656 130.533 17.5498 142.356 14.0246M122.033 22.5498C121.485 13.6668 127.638 1.69211 145.468 5.85076C149.011 6.67722 151.663 9.70476 151.352 13.3299C150.633 21.7024 145.341 32.7772 131.533 30.0498" stroke="#006C3A" stroke-width="4" stroke-linecap="round" stroke-linejoin="round"/>
</svg>
